<svg xmlns="http://www.w3.org/2000/svg" viewBox="0 0 85 21.83"><defs><style>.cls-1{fill:#71cd5b;}</style></defs><title>money5</title><g id="Layer_2" data-name="Layer 2"><g id="Layer_1-2" data-name="Layer 1"><path class="cls-1" d="M2.44,13.72a.49.49,0,0,1,.49.43c.2,2.27,2,3.17,4.24,3.17,2.59,0,3.55-1.27,3.55-2.54a2,2,0,0,0-1.39-2.07c-1.18-.45-2.71-.75-5-1.39C1.46,10.54.61,8.8.61,7.06c0-3.37,3.11-4.94,6.14-4.94,3.32,0,6.13,1.66,6.42,4.81a.5.5,0,0,1-.49.56h-2a.49.49,0,0,1-.49-.4C9.93,5.22,8.53,4.51,6.64,4.51,5.27,4.51,3.55,5,3.55,6.7c0,1.18.8,1.84,2,2.17.26.07,4,1,4.85,1.29a4.45,4.45,0,0,1,3.27,4.28c0,3.77-3.34,5.27-6.69,5.27C3.33,19.72.33,18,0,14.27a.5.5,0,0,1,.49-.55Z"/><rect class="cls-1" x="4.6" width="1.6" height="21.83" rx="0.4" ry="0.4"/><rect class="cls-1" x="7.45" width="1.6" height="21.83" rx="0.4" ry="0.4"/><path class="cls-1" d="M20.28,13.72a.49.49,0,0,1,.49.43c.2,2.27,2,3.17,4.24,3.17,2.59,0,3.55-1.27,3.55-2.54a2,2,0,0,0-1.39-2.07c-1.18-.45-2.71-.75-5-1.39-2.87-.78-3.72-2.52-3.72-4.26,0-3.37,3.11-4.94,6.14-4.94,3.32,0,6.13,1.66,6.42,4.81a.5.5,0,0,1-.49.56h-2a.49.49,0,0,1-.49-.4c-.29-1.87-1.69-2.57-3.58-2.57-1.37,0-3.08.49-3.08,2.19,0,1.18.8,1.84,2,2.17.26.07,4,1,4.85,1.29a4.45,4.45,0,0,1,3.27,4.28c0,3.77-3.34,5.27-6.69,5.27-3.66,0-6.66-1.67-7-5.45a.5.5,0,0,1,.49-.55Z"/><rect class="cls-1" x="22.43" width="1.6" height="21.83" rx="0.4" ry="0.4"/><rect class="cls-1" x="25.28" width="1.6" height="21.83" rx="0.4" ry="0.4"/><path class="cls-1" d="M38.11,13.72a.49.49,0,0,1,.49.43c.2,2.27,2,3.17,4.24,3.17,2.59,0,3.55-1.27,3.55-2.54A2,2,0,0,0,45,12.71c-1.18-.45-2.71-.75-5-1.39-2.87-.78-3.72-2.52-3.72-4.26,0-3.37,3.11-4.94,6.14-4.94,3.32,0,6.13,1.66,6.42,4.81a.5.5,0,0,1-.49.56h-2a.49.49,0,0,1-.49-.4C45.6,5.22,44.2,4.51,42.3,4.51c-1.37,0-3.08.49-3.08,2.19,0,1.18.8,1.84,2,2.17.26.07,4,1,4.85,1.29a4.45,4.45,0,0,1,3.27,4.28c0,3.77-3.34,5.27-6.69,5.27-3.66,0-6.66-1.67-7-5.45a.5.5,0,0,1,.49-.55Z"/><rect class="cls-1" x="40.26" width="1.6" height="21.83" rx="0.4" ry="0.4"/><rect class="cls-1" x="43.11" width="1.6" height="21.83" rx="0.4" ry="0.4"/><path class="cls-1" d="M55.94,13.72a.49.49,0,0,1,.49.43c.2,2.27,2,3.17,4.24,3.17,2.59,0,3.55-1.27,3.55-2.54a2,2,0,0,0-1.39-2.07c-1.18-.45-2.71-.75-5-1.39C55,10.54,54.11,8.8,54.11,7.06c0-3.37,3.11-4.94,6.14-4.94,3.32,0,6.13,1.66,6.42,4.81a.5.5,0,0,1-.49.56h-2a.49.49,0,0,1-.49-.4C63.43,5.22,62,4.51,60.13,4.51,58.77,4.51,57,5,57,6.7c0,1.18.8,1.84,2,2.17.26.07,4,1,4.85,1.29a4.45,4.45,0,0,1,3.27,4.28c0,3.77-3.34,5.27-6.69,5.27-3.66,0-6.66-1.67-7-5.45a.5.5,0,0,1,.49-.55Z"/><rect class="cls-1" x="58.09" width="1.6" height="21.83" rx="0.4" ry="0.4"/><rect class="cls-1" x="60.95" width="1.6" height="21.83" rx="0.4" ry="0.4"/><path class="cls-1" d="M73.77,13.72a.49.49,0,0,1,.49.43c.2,2.27,2,3.17,4.24,3.17,2.59,0,3.55-1.27,3.55-2.54a2,2,0,0,0-1.39-2.07c-1.18-.45-2.71-.75-5-1.39-2.87-.78-3.72-2.52-3.72-4.26,0-3.37,3.11-4.94,6.14-4.94,3.32,0,6.13,1.66,6.42,4.81a.5.5,0,0,1-.49.56H82a.49.49,0,0,1-.49-.4C81.26,5.22,79.86,4.51,78,4.51c-1.37,0-3.08.49-3.08,2.19,0,1.18.8,1.84,2,2.17.26.07,4,1,4.85,1.29A4.45,4.45,0,0,1,85,14.45c0,3.77-3.34,5.27-6.69,5.27-3.66,0-6.66-1.67-7-5.45a.5.5,0,0,1,.49-.55Z"/><rect class="cls-1" x="75.93" width="1.6" height="21.83" rx="0.4" ry="0.4"/><rect class="cls-1" x="78.78" width="1.6" height="21.83" rx="0.4" ry="0.4"/></g></g></svg>