<svg xmlns="http://www.w3.org/2000/svg" viewBox="0 0 59.48 51.5"><defs><style>.cls-1{fill:#c5f018;}</style></defs><title>trayin</title><g id="Layer_2" data-name="Layer 2"><g id="Layer_1-2" data-name="Layer 1"><path class="cls-1" d="M12.36,0H59.48a0,0,0,0,1,0,0V51.5a0,0,0,0,1,0,0H12.36A12.36,12.36,0,0,1,0,39.14V12.36A12.36,12.36,0,0,1,12.36,0Z"/><path d="M26.07,17.15,35,25.74l-8.94,8.59a1.13,1.13,0,0,0,.76,1.94h0a1.12,1.12,0,0,0,.78-.32l9.78-9.41a1.13,1.13,0,0,0,0-1.63l-9.78-9.41a1.16,1.16,0,0,0-1.6,0,1.13,1.13,0,0,0,0,1.6Z"/></g></g></svg>