<svg xmlns="http://www.w3.org/2000/svg" viewBox="0 0 283.96 226.41"><defs><style>.cls-1{opacity:0.4;}.cls-2{fill:#fff;}</style></defs><title>logo2</title><g id="Layer_2" data-name="Layer 2"><g id="Layer_1-2" data-name="Layer 1"><g class="cls-1"><polygon class="cls-2" points="230.48 108 227.48 108 227.48 68.5 198.48 68.5 198.48 108 195.48 108 195.48 65.5 230.48 65.5 230.48 108"/><polygon class="cls-2" points="87.48 108 84.48 108 84.48 74.18 69.98 70.55 55.48 74.18 55.48 108 52.48 108 52.48 71.83 69.98 67.45 87.48 71.83 87.48 108"/><polygon class="cls-2" points="207.98 108 204.98 108 204.98 51.5 172.98 51.5 172.98 108 169.98 108 169.98 48.5 207.98 48.5 207.98 108"/><polygon class="cls-2" points="183.48 108 180.48 108 180.48 97.5 149.48 97.5 149.48 108 146.48 108 146.48 94.5 183.48 94.5 183.48 108"/><polygon class="cls-2" points="156.98 108 153.98 108 153.98 81.5 124.98 81.5 124.98 108 121.98 108 121.98 78.5 156.98 78.5 156.98 108"/><polygon class="cls-2" points="140.98 108 137.98 108 137.98 60.5 130.98 60.5 130.98 38.5 124.98 38.5 124.98 29 111.98 29 111.98 38.5 105.98 38.5 105.98 60.5 98.98 60.5 98.98 108 95.98 108 95.98 57.5 102.98 57.5 102.98 35.5 108.98 35.5 108.98 26 127.98 26 127.98 35.5 133.98 35.5 133.98 57.5 140.98 57.5 140.98 108"/><polygon class="cls-2" points="107.98 108 104.98 108 104.98 91 78.48 91 78.48 108 75.48 108 75.48 88 107.98 88 107.98 108"/><rect class="cls-2" x="116.98" width="3" height="27.5"/></g><g class="cls-1"><path class="cls-2" d="M206,124.24l.53,4.35.6,2.63.3,1.5.08,1.12.53,2.1.07,1.43.3,1.35L209,143l.6,3.3.39,2a6.35,6.35,0,0,1,4.57-2,9.15,9.15,0,0,1,4,1.1l-.08-.79.15-.3-.6-3-.15-1.95-.38-1.28v-1.28l-.38-2.32.08-.38-.23-.45-.15-1.65-.3-1.42-.15-1.87-.23-.75v-1.05l-.45-3.6-.45-2.17.08-.3-.08-.15V122l-.23-.3-.07-.45-.15-.23-.9-.38-1.58-.07-.75.15-.15-.08h-1.05l-.15.08-.3-.15-1.12.07-.75-.15-1.42.08-.9.45-.15.6.22,2.1ZM216,142l.15.15v.15l-.15-.15Zm-2.85,1.5H213l.07-.3.23-.08Zm1.5-.9-.07.08v-.3h.07Zm.9-.15-.15.08.15-.15Zm.07-.45-.15.07h-.15v-.6l.3.15Zm-.22-1.65.15.08v.15l-.38.07-.08-.22Zm-.67-1.27.07-.15.15.07-.3.6-.15-.15Zm-.45-.45.15.15v.15l-.22-.15Zm-.15.75h.23l-.15.15H214ZM214,142l.22-.08.08-.3.23-.15.45.07.07.15v.15l-.22.15-.6-.08-.15.38-.15-.23Zm0,1h-.15v-.23l.07.08Zm-.38-9.9.07.07-.15.08Zm-.08,9.45.3.07-.15.15-.15-.07Zm-.53-3.75.08-.15.07.6-.15.07L213,139Zm-.15,2.48h.15l.23.23-.23.38-.22-.23Zm-.15.75.53.15v.15l-.3.07-.23-.22Zm-.08,1.42.08.08v.23l-.23-.08Zm-1.27.6.08.3-.08.08h-.15Z"/><path class="cls-2" d="M144.19,125.9l.08.15v.82l.07.15.15,2,.45.45,1.35.23.15-.08h2l.15.08h.9l.15.07,1.42-.15,1.72.08.67.38.23.75v.9l-.07.15v1.8l.07.15v.75l.08.15-.15,1.42v1.05l.07.15v.9l-.07.15v2.32l.07.15V143l-.07.15v6.37l.07.15v2.25l-.07.15.07,1.8.08.15,0,.48c3-4.92,6.3-8.36,9.84-10.15v-1l-.07-.15.15-.45v-1.95l-.08-.15v-.6l-.07-.15.15-2.25-.15-.67v-2.7l.07-.15v-.9l.08-.15v-1.35l-.08-.15v-1.2l.38-.75.15-.08h.67l.15-.07h.67l.15-.08h.9l.53.23.6-.15.3.15,1.65-.15,1,.15,1.27-.08.6-.38.23-.45.07-1.2-.07-.15v-2l.15-.3-.15-.15-.08-1.12.08-.15v-1.2l.07-.15v-.75l-.23-.45-.3-.3-.67-.22h-1.87l-.15.15-1.65-.08-.53-.15h-2.25l-.15.08h-2.1l-.6.15-2-.15-.15.07h-4.57l-.15-.07h-1.05l-.15.07h-1.05l-.15.08h-1.58l-.53-.15-.3.15-1.5-.23-1.42.08-.15.07h-2.1l-.53.08-.45.38-.15.3v2.32l-.07.3.3.22-.23.6Zm28-.6-.08.15v.08l-.15-.08Zm-6.67,1.65-.08.15h-.15l-.23-.23.45-.08Zm.07-.38-.23-.15v-.15l.23-.07.08.23Zm.67-.15-.15.07-.08-.15.23-.08Zm-.45-1.72v-.15l.07-.15.15.08.15.3Zm.67,3.75h-.15l.07-.23.23.08Zm-.23-3.53v-.07h.23ZM168,125h-.15l-.07-.15.07-.08.15.08Zm1.5,1.5-.08.15h-.15l-.15-.22.08-.15.3.08Zm0-.67-.08-.3v-.15l.45.15.07.23-.07.3Zm.53,1.05-.23-.08-.07-.15.07-.15.45.15Zm.22-4.42.15.15-.15.08Zm0,.82.08.23-.08.15v.22l-.3-.3Zm-.15,1.5.08.08-.08.15-.3.15-.45-.07-.15-.15v-.15l.3.08Zm-1.05-.53h.15v.15H169Zm-1-.22.15.07-.07.23-.08.15-.15-.08Zm-.53-1.2.15-.15h.15l.08.3h-.38Zm.15,3.15v.15l-.37-.07-.08-.15.08-.15Zm-.53-.53h.23l-.07.23-.15.08-.07-.15Zm-.22,1.5-.15-.08v-.15h.15Zm-.08-1.65-.15-.07-.08-.15Zm-1.2-1.43.82-.07.08.07-.9.3-.15-.08Zm-.3-1.2.07.3-.3-.08-.07-.15Zm-.82,1.65.3.15.15-.08v-.45l.45.45.08.3-.15.07-.3-.22H165l-.38.37-.22-.53Zm-.08,3.3v.15l-.23-.38Zm-.67-2.55-.3.22h-.15l.3-.3Zm-.53-2.92.23.15-.15.07-.08-.07Zm-.38,1.2.15.15-.15.07Zm-6.52,22-.07.15-.08.08-.53-.08Zm-.6-3,.15-.3H156v.15l-.15.07-.08.15Zm.38-10.12.3.15-.08.15-.3-.15Zm-.3-2.7-.07-.15.15-.3.45-.38.15.08-.3.53Zm.08,17.24.67-.15.15.08Zm.75-13,.07-.15.3.22-.07.15-.23-.07Zm.22,10.2-.15-.07v-.15h.3Zm0-9v-.15l.3.3H157Zm.53-7.8.15-.15.23.15.15.3v.22l-.38.38-.15-.08.08-.45Zm.23,4.27.08.15-.23-.22Zm-.08-2.1v-.23l.23.07-.07.15Zm.38,3.15-.3.38-.08-.3Zm-.07-2.47.15-.23h.15v.15L158,130Zm0-1.13.07-.07.08.07.07.15Zm-.38-.67-.08.15-.22-.07-.08-.15h.15l.15-.08Zm-.15,6.3v.15l-.23-.08v-.15Zm.07,2.18-.07.15-.15-.08.07-.15Zm-.3,11v-.15l.23.08Zm.23-10,.53-.45h.07l-.15.45-.38.15Zm.45,5v-.15l.08.15Zm.3,2.18h-.15v-.23l.3-.15.08.07Zm.53-6.15-.3.15-.15-.08.15-.3.15-.08h.15Zm-.15-10.57v-.45l.3-.08-.15.53Zm.45,9.45-.15.08v-.3l.15.08Zm0-1-.07.15-.23-.15.15-.45.15.15Zm0-1.05-.3-.08v-.15h.15l.15.08Zm0-8.25h-.15v-.23l.23.08Zm.23-1.65-.3.07-.38.38h-.15l.23-.38.15-.07.07-.45.45-.3.45.08-.07.15-.45.3Zm1.2.6.38.45v.15l-.45-.23-.23-.3Zm-.22-1.35v-.15l.22.23Zm.75,6.45.3.08-.15.3-.82.08v-.3l-.3-.07Zm-.07-3.22.15-.23.07.15Zm-.9,1.35.23-.53.3-.3.3-.15-.15.6Zm.45.67-.22.08v-.15l.15-.08Zm0-2.1.08.22-.15.23-.6.23-.15-.08-.15-.3.6.07Zm-.75.07h-.15l-.15-.07.08-.3.23-.15.22.15Zm0-1.72h-.38l.15-.23.3-.07.08.07Zm.07,6.3-.23-.07v-.15l.3-.08Zm-.07-1.35-.3.08-.07-.08.15-.3.3-.08.08.15Zm.53,1.65v.15h-.15l-.15-.08Zm0,1.2-.15-.08.08-.3h.23l.07.3Zm.52-1.72.23-.08-.07.3-.15-.07Zm.15,5.92.3.08v.15l-.3-.08Zm.22,2.63.23-.15.15.07-.08.08-.3.15Zm.53,2.25-.3-.08v-.15l.15-.08.15.08Zm-.3-5.4h-.15l.07-.22.15-.08.15-.15.07.23Zm.15-7.57.08.23h-.15v-.07Zm-.08-.22V130l.08.15Zm.6-1.2.08-.15.07.07Zm.38-2-.23.15.08-.15Zm-.45-5.48H162v.23l-.23-.07Zm.45,6.3.07.15-.3.3-.15-.07-.08-.08Zm-.67-.53h-.15v-.15l-.23-.3v-.15l.3.23Zm-.45-4.87-.07.15h-.15l-.08-.15Zm-.45.82h.15l.08.08.37.15-.67-.07Zm.38,1.72-.3-.15-.08-.15.08-.15.22.15Zm-.3.45h.52l-.07.15-.45.23-.08.07-.08-.07Zm-1.5-2.25.08-.08.6.08.15-.08.07.15-.15.23h-.3l.15.23.45.15.15.3-.37-.07-.83-.38.08-.15Zm-.22-.3.15.07V123L159,123Zm-.23,1.12.3.08-.07.3-.23-.23Zm-.3.82L158,125l-.15-.15.07-.15h.3l.6-.3Zm-.67-1.5.45-.08.08-.07.15.15-.15.15-.75.08Zm-.9,2.85.07.08.53-.15.08.38h-.3l-.38.37.07-.53Zm0,4.12-.08.15h-.15l-.07-.6.22.15Zm-.53-3.82.15-.08h.15l-.07.38h-.23Zm-.3-2.55.07-.15.15-.07V124l-.3.07Zm-.23,1.88v.07l-.08.3-.07-.22Zm-.23,2.77.23.15h-.23Zm.38,11.4-.15.23-.3-.08-.08-.15Zm-.82-17.17-.08.08H155Zm-1.43.67.08.08-.15.07Zm-1.27,4.35-.23.15-.15-.15v-.15h.38Zm-.45-4.27h.23l.15.15-.07.15h-.15l-.15-.15Zm-1-1.58.15-.08.08.15-.23.08Zm-2.63.6.15.23-.07.3v.08l-.23-.23Zm-1.35-.53v.15l-.15.15h-.15Zm-.82-1,.15.08-.15.07Zm0,.3.15.08-.15.07Zm-.3,3,.22.07H146Z"/><polygon class="cls-2" points="0.15 172.98 0.22 173.13 0.3 173.06 0.15 172.98"/><polygon class="cls-2" points="23.24 144.34 23.09 144.34 22.94 144.64 23.39 144.49 23.24 144.34"/><path class="cls-2" d="M283.89,129.87l.08-.9-.08-.15.08-1.35-.23-.75.15-.9v-2.1l-.07-.15v-1.95l-.3-.67-1.65-.45-.67.15H280l-.15-.15h-1.28l-.15.08h-2.25l-.6.15-.38.23-.3.52-.15,1.58.22.6-.07,1.5-.08.08v2.7l.08.15v.75l-.15.3.15,1.05v.9l-.08.15v2.85l.08.15v3.68l-.08.3.15.3-.22,1.28.07.15v2.4l-.07.07v2.25l.15.67-.15.6.07,1.2-.22.45h-.15l-1.12-2.47-.15-.75-.38-.75.08-.22-.38-.53-.75-2.48-.45-1.05-.15.08-.08-.08-.07-1.05-.6-1.5-.38-1.35L269,132.79l-.6-.37-.15-.3.38-.22-.38-1.43-1.13-3.15-.22-.53-.15-.82-.75-1.65-.9-2.7-.15-.08-.08.23h-.15l.08-.45-.15-.45-1.05-.3-1.43.07-.15-.07h-1.65l-.15.07h-1.35l-.45-.15-.67.15-.38-.15h-.45l-.75.38-.38.38-.07,1.05.07.15v.75l-.07.15v1.72l.07.15v2.1l-.15.15v1.2l.08.15v1.27l-.08.15v.9l.08.15v2.25l.07.23-.22.82v1.35l.22,1.5v1.2l-.07.08.07,1.43-.15,1.35.23.75-.23.53.15.3-.22,1.2v.6l.07.15v3.22l.23,1.35-.3.9.22,1.87-.07.15v.6l-.08.15v.6l.08.15v.9l-.08.15v4.35l.08.08v1.05l.07.15v2.25l-.22.9.15.75v1.2l-.08.15v3.15l.08.15V172l-.08.15v1.58l.08.22.75.75.37.15,1.35.15.45-.15.23.15.45-.07.23-.15h.3l.22.23.45-.07H263l.9-.15.67-.3.23-1.35V169l.07-.15v-4.65l-.07-.15v-7.42l.07-.15-.07-1.35-.08-.15.15-1.2-.37-.23.22-.38.15-.53v-1.35l-.07-.15v-3.07l-.23-.3.08-.3.22-.23.15-.6.3.07,1.27,3.15.3.82.07-.15.23.07-.23.15-.07.23.6,1.28.08.6.75,1.8.08.37.53.3.15.22h-.38l.9,2.63.38,1.28.67,1.58v.37l1,2.4.82,2.1.38,1.43.9,2.25.45,1,.6,2,.53,1.12.3-.08.08.08-.23.53.82.67.3.08h3.68l.6-.08.3.15,1.27-.23.3.08.75-.23.38-.45.15-.75-.08-1.2-.07-.15.15-1.42v-1.35l-.08-.15.08-1.35-.15-.3v-.75l.07-.15v-1.5L284,165v-.75l-.15-.3.15-1.35-.08-1.35-.07-.15v-1.05l.07-.15v-5.1l-.07-.15v-.75l-.08-.15V152l.08-.15v-2.4l.15-1.35-.08-.15V147l-.3-.6.3-.23-.15-.67v-.82l.08-.15v-.75l.07-.15v-7.42l-.07-.15v-.82l-.08-.15.08-1.8.07-.15-.07-1.42-.08-.15.08-1.65Zm-18.59.6.23.15v.15l-.6.08-.15-.08.07-.3Zm-.23,2.17-.07.08v-.15Zm-1.8,1.43-.23-.15-.23-.45-.15-.07-.15.15-.08.67-.15.3-.22-.22.07-.67v-.45h1.13l.45.23.23-.08.38.38-.38.45-.38-.3Zm.22,2.32h-.07v-.22Zm-.75,1.65v-.45l.07-.07v-.15l.6.6Zm.67.38-.3.22-.15-.07v-.15l.38-.08Zm-.82,2-.15-.53.08-.15.23.22v.38Zm.15,1.58h-.15v-.08l.07-.15Zm-2.33,10.8-.22-.23H260l.08-.38.38.08.23.45Zm.3,1.27-.15.08V154Zm-.53-4.95.07-.15.23.23v.15l-.08.07h-.15Zm.07-2.55-.23.15h-.15l-.15-.15v-.15l.45-.3.3-.08-.23-.67.3-.08.15-.22.15.22v.45Zm-1-4-.15-.08v-.15l.3-.23.15.38Zm.3,9.15-.15.23-.08-.08.08-.07Zm-.07-10.2-.15-.3.23.15v.22Zm0-4.42v-.15l.22-.07.08.3-.08.15v.08Zm-1.05-1.88.07-.3.3-.07.22.15.08.15-.3.67-.08.45.08.3h-.15l-.22-.38.22-.67Zm0-1.72.22-.07v.15l-.15.08Zm.07,4.43h.15l-.07.3h-.15Zm.15.67.3-.15h.22l-.07.37-.45.08-.07-.08Zm.45-4.05H259l.37-.67v-.3l.38.45-.07.15-.3.07Zm-.08-1.2.23-.07.07.22Zm1.8-2.62,1,.07-.67.45-.3-.08-.3.15-.15-.45.3.07.07-.07Zm-.08-.6.15-.07.23.22-.08.3-.15-.15Zm.53,12.52-.23-.07.08-.15.3.3v.15Zm.08,2.25-.23.08.08-.3.07.08Zm-.15-3.22v-.15h.15v.15Zm0-7.27L261,134v-.22l.53.38v.15Zm.22,4.58v.22l-.15.08-.07.07-.15-.07.08-.15Zm-1.27-4.2H260l-.07-.15.15-.23.82.08-.3.75Zm.07,1.28v.15h-.15L260,136l.07-.15Zm.53-.15-.07.08-.15.08.08-.23Zm-.23.6.23-.23.15-.07.08,1.05-.15-.6-.15.08-.15-.08Zm-.15-6.37-.22.08-.15-.08.15-.3h.15l.07.15Zm-.3,2.18.08.07-.08.23h.45l-.6.75-.45-.45Zm-.53,6,.3.15.38-.3.08-.6-.15-.3.3.07.3.38v.6l-.15.23-.3.15h-.53l-.23-.22Zm1.2,1.43-.07.08v-.23Zm-.15,2.25-.45.15-.38-.22v-.3l.22.08.23-.23v-.15l.3.15.08.15Zm.15,1.87-.07.23-.15.07-.07-.45Zm-.38-4.35-.22.15h-.3v-.38l-.07-.08.6-.3-.07.3Zm-.22.6.15.08v.15l-.45.07-.15-.07v-.15Zm0,.9-.23-.15v-.15h.15Zm.3-.82V140l.07-.15.15.38Zm.15.75v-.15l.38-.3h.15l.23.22v.15l-.53.07Zm.45,15h.15l.22.38-.07.07-.3-.3Zm.45,10.87v.15l-.23-.07Zm-.23-11.32-.15.08.15-.6v-.3h.15l.08.45Zm.08-2.1.07-.15.15.08-.07.08Zm.15-.83v-.3l.3.08.08.15-.08.15Zm0-6.52-.23-.07v-.08l.3-.15Zm-.15-1.57.07-.45.3-.22h.15l-.23.82Zm.37-8.77h-.15l.15-.23H262Zm.08-2.85-.08-.3.08-.15.23.15v.45Zm.23,4.65h.07l.15.08-.22.07Zm.07-.37-.07-.23.15-.08.22.23Zm.23-1.2.07.15-.22.15v-.3Zm-.15-.75v-.23l.15-.07.15.15-.08.07Zm1.12-6.3.08-.08.07.15-.22.53-.15-.07Zm-.22-.45.07-.07.15-.08v.3h-.15Zm.9,3.6-.15.08-.07.07-.53.08-.08-.38.53-.23h.45l.15-.22h.15Zm.45.75-.15.23h-.23l.07-.23Zm-1.13-3v-.15l.15-.15.08.15-.08.15Zm-.07,1.35v.15l-.15.15H263v-.15l.15-.15Zm-.15,1.58h.15l.15.08-.23.15-.45-.08v-.15l-.3-.45Zm.75,2,.45-.3h.15v.15l-.23.15.75.53-.08.07-.6-.07-.53-.23Zm.82-2.48-.07.08-.08-.15.3-.08v.15Zm.15,1.72-.15.08.08-.15Zm-.15-5.4.15.15h-.15Zm-.67.75.15-.22h.15l-.08.6.3.75v.45l.23.23-.67-.08.15.23-.67.23.08-.3.6-.37.08-.3-.3-.07-.3-.38.15-.23.23-.07Zm-.45-2.25.15.07v.15l-.15.08-.15-.15Zm-.53-.38h.3l-.07.3-.23-.15Zm-.08-4.5v.08h-.15l-.07-.15Zm0,5.4.15-.08h.37l-.07.3-.3.15h-.23l-.3-.15-.08-.3Zm-.37,2.62.15.08-.53.75.3-.07.38.07-.08.15-1.42,1.05.6-.82v-.23l-.15-.15.15-.45Zm-.67-2.77.15.08v.15l-.15.08-.15-.08.08-.07Zm-.23-5.32.07.08-.15.08Zm-.23,6.52.3.3-.07.45-.38.38-.45-.08.07-.22.38-.23-.3-.38-.38.23-.45-.23.22-.3.3-.08.6.08Zm-.75-4.65.3.15-.15.07-.15-.07Zm-.38,3.75.3-.08.15-.07-.23.67-.15.07-.3-.23Zm-.45-.6.08-.07.07.3-.07.15-.15-.08Zm0,3.45.08.08.07.15h-.3Zm-.37-.08-.23.08v-.23l.07.08Zm-.23-2.17-.15.15H259v-.22l.3-.08Zm-.3-1.35.15.23v.22l-.3-.07-.15-.3Zm-.45,1.05.15-.15h.15l-.08.3h-.23Zm-.07,3.9.15.08.38,1.27-.38-.07-.23-1.05Zm.07,19.72h-.15l.15-.3.08.15Zm.15,6.22v.15l-.15.07h-.15v-.15Zm-.53-18.67L258,139l.08-.23.3-.07Zm0-1.35V138l-.22-.07v-.3Zm-.15-2.92v-.38l.23.23-.08.15Zm.15,3.3-.15.08.08-.15Zm-.3-10.72.15-.08.15.23-.15.08-.15-.08Zm.08,2.92.22.07-.07.15.15.3-.08.15-.3-.23-.07-.38Zm-1.2,13.12h-.23l-.15-.15v-.23l.3.23Zm-.38-17.92.08.07-.15.08Zm0,16.27.08.08v.3h-.15l-.07-.15Zm-.38,4.57.23.15H256Zm.38,16-.23-.15.08-.22.23.22Zm.3-17.85.15.15v.3l-.22-.07-.08-.23Zm-.07,26.24v-.15l.15.15Zm.3-.6h-.15l-.08-.23.3.08Zm.53-40,.07.07-.15.08Zm.45,1.58-.07.37-.15-.07-.15-.3Zm-.23,8.32v-.3l.23.15.3.67V141h-.22Zm.53,3H258v-.22l.23.07Zm.45,19.5-.23-.08.38-.23.08.08Zm.38-2.85-.3-.15.08-.15H259Zm-.3-2.77.08-.15.08.08Zm.15-6.45-.08-.07-.08-.15.3.08Zm.07-6.45h-.15v-.15l.23-.08Zm-.23-2.1v-.3l.23.07-.07.23Zm-.07-1.12-.15-.3.38-.15.07-.22-.3-.08v-.3l.23-.23.45-.07.23.15v.15l-.3.07v.23l.15.3v.3l-.3.15Zm.53,6.45.07-.15.15.07-.07.08Zm.22,5.55.08-.15.08.08Zm.38,8.85h-.22v-.3l.22.15Zm0-8.17-.07-.15h.22l.08.15Zm.23-2-.15.08h-.23l.15-.83-.15-.45.23.15.22.45Zm.23,4-.15-.23h.45l.23.23.07.23-.07-.15Zm.37,6.6-.07-.3.3-.07.15.6-.07.15Zm.38,8.1.38-.23-.07.3h-.15Zm.6,1.65-.08.15h-.15l-.07-.15.07-.15h.23Zm.15-.37-.23.07-.15-.3.3-.08.23.15Zm.15-17.1-.15.08-.15-.23.15-.53.23.15.07.3Zm-.08-7.87-.07-.22.53-.08v.45l.3.3-.23.15-.22-.15Zm.53-1.65v-.3h.15l.08.15v.15Zm-.15,3.3.3-.3.15.08-.15.3-.15.08h-.15Zm.75.6-.23.15h-.23l-.15-.45.23-.08Zm-.15-5.32.22.08v.15l-.15-.08Zm-.23,15.45h-.23v-.3l.23.15Zm-.08-3.52h-.15l.15-.3.08.15Zm.08-2.18-.15-.07.23-.08.07.15Zm.15-.53-.07.08h-.15l-.07-.3.07-.15h.23Zm0-3.45.23.07.07.3-.22-.07-.08-.15Zm.23,1.42-.08-.07-.07-.15h.38l.07.15Zm.15.3.15.07v.3l-.23-.22Zm.08,9.22.15.07v.15h-.15l-.08-.15Zm0,8.4v-.23l.15.15Zm.3-5-.15-.15.07-.15.15.15Zm0-8.47v-.22l.07.07.08.15Zm-.08-12.45.08.15L263,143l-.15.3-.22-.23-.53-.15.3-.3h.15l.23.23h.15l.07-.3.3-.3.07-.3h.15l.08.15Zm.3-2.77h-.15l-.07-.3.23.08Zm-.15-.67.75-.67V138l.23.3.07.3-.15.6-.23.23-.22.07Zm.75,8.47H264l.08-.3.23.07Zm.08,4.35-.15.15-.15-.08.08-.15.15-.08Zm-.45-6.67.08-.07.15.3Zm.23,3.23.07.15-.07.07h-.23v-.22Zm-.08,4h.15l-.07.23-.23-.15v-.15Zm.08,1.5.07-.15.23.15v.15h-.3Zm-.23,3.07.23.23-.23-.08Zm.53,7.57-.15.15h-.15l-.08-.15.38-.15Zm.08-9-.38-.23.15-.15.23.22Zm-.08-3.23.08-.15.07.08Zm.75-12.45h-.45l-.07.15-.23-.23.15-.22.23-.08.3.08.15.15Zm.15-2.1-.15-.07-.67-.52v.15l-.3-.08-.07-.15-.23.23v-.3l.38-.15-.08-.38.75-.23.3.08-.07.22-.6.08-.07.15.75.45.23.3Zm.15-.82.08-.15.07.08Zm-.08-1h-.15l-.53-.15v-.23l.15-.15.15.22.3-.3.23-.07.07.45Zm-.22-1.35.07-.23.08.08-.08.37Zm.6-.9.08.23-.23-.08-.15-.23-.3-.15.15-.23.45-.07.15.07-.3.15-.07.07Zm-.22-1.8-.15-.07v-.23h.38l.08-.07.07.15Zm7.35,22.49-.08.15-.3-.07v-.15l.07-.15Zm-.38-5.17.07-.07v.3h-.07Zm-1.13-4-.15.08.08-.15Zm0,5.85-.3-.07v-.15l.23.07Zm-.15-9.3.08.15h-.15Zm-.53-.53.15.07-.15.08Zm-1,2.7h.15l-.23.08Zm-.15.67.15.15-.15-.07Zm-.23-1.12.15.07-.15.15Zm-.07-1.58v.15h-.15l-.08-.15.08-.08Zm-.3-.67.08.07H269Zm-.22-1.72-.08.22h-.15l-.07-.15.15-.07Zm.15,1.12-.45.15-.15-.07.08-.3.38-.07Zm-.45-2-.08.08h-.6l.08.22.23.23-.23.23h-.15l-.23-.23v-.53l.23-.23h.53Zm-1.28,3.07-.15-.3.15-.08h.67l-.23.38-.3.08Zm.15,2-.23.23h-.15V144l.23-.07Zm-.45-8.47.22.22v.15l-.15.08-.3-.08-.23-.22v-.15l.15-.08Zm-.15-1.05v-.15l.22.15-.07.23Zm.22-1.13.23-.07.15.07-.15.23-.15-.08Zm.38,4.73v.15l-.15.07-.3-.15.22-.22Zm-.08-1.13.23-.07V137Zm.15,3.45-.3-.07.08-.23.15.15Zm-.38-1.5.07.15v.15l-.15.08-.22-.15-.15-.45Zm-.08.6h.15l.08.07-.3.08Zm.6,3.3.53-.07.07.15-.38.22h-.3Zm.45-2.25v.15l-.38-.07.23-.52h.3Zm.15-3.3.08.15-.38.07-.08-.37Zm-.45.37.07.15-.22.07Zm-.45-1.12-.15-.08.23-.22h.15Zm-1-4,.3-.15.38.08h.15l.23.07v.15h-1.12Zm.38,7.65V140l.23.23-.08.23-.3.07-.15-.07Zm-.23,2.47.08-.15.07.08Zm.38-1.58h.15l-.15.45-.15.07Zm.08,4.58-.08-.08.08-.15h.22v.15h-.15Zm.3,4.65-.08-.15.38-.07Zm.67.38-.15.08h-.15l.38-.38Zm-.15-4.2-.45-.23-.3-.38v-.07l.45.07.53.6Zm.67,2.92-.08.07-.15-.07.15-.23.15.08Zm.23-.67-.23-.08-.08-.15.3.08Zm-.15-4.73-.15-.07.08-.23h.23Zm.37-1.27-.15-.08v-.15H269l.08.15Zm.15,8.4-.07-.15.3-.08.38.38Zm1.2,1.87-.15-.15.15-.23Zm-.15-2,.08-.15.07.08Zm.23,1.5h-.08l.15-.15Zm.08-3.3h-.83l.08-.3.38-.15h.6l-.15-.3.08-.15.38.23.07.37-.3.23Zm.37.67v-.15l.3.07.22.45-.07.15-.3.15Zm.53,6.6h-.15l.3-.38.08.15ZM271,156l.15-.22.07.15Zm.45-2.92-.23-.07-.22-.23v-.15l.3.07.15.23Zm.23-6.75.07-.15.08.07Zm.15-4.5-.3.08-.08-.15.23-.15.15.08Zm.07,10.8v-.23l.15.08Zm.23,4.57V157l.23.08Zm.15-4.8-.07-.15.15-.15.15.15v.15Zm.23,11.17.23-.07.22.3v.15l-.38-.15Zm.23,1.8.15-.15.07.08Zm.15-.83-.15-.22.07-.23.15-.08.08.38Zm.15-2.17-.08.15-.22-.23.3-.07Zm0-5.1-.15.07.07-.22h.15Zm.15-2.63h.15l.08.15h-.23Zm.3,3.3h-.15l-.07-.15.15-.23h.22Zm9.45-26.17.08-.15.07.3h-.15Zm-.15,5.32H283l.07.45h-.3l-.08-.3Zm-.23-1.13.08.15-.15.23-.45.15-.3-.15-.08-.15.38.07.38-.22Zm-.22,7.27v.15h-.15l-.07-.23ZM281,159.86l.08-.3.15.23Zm.23,6.75-.07.3-.08-.22Zm-4,.82v-.15l.07-.07h.6l-.08.3Zm.45.75v.15h-.15l-.08-.15.08-.08Zm-1.8-5.1h.3l.3.15v.15H276l-.22-.15Zm-.08-1.87-.15-.08.15-.15h.15Zm.67-25.42-.23.07.08-.22Zm-.15-3.82.15-.22.15.15-.07.15-.15-.08Zm.15,9.22.3.08.23.38v.45l-.3-.07-.3.15h-.23l-.15-.15h.3l.15-.23Zm1.58-.75.38.38V141l-.3-.08-.3-.3-.22.15-.23-.08-.08-.15Zm-.08-1.5v-.15l.3.08V139Zm3.9,2.77-.15-.07.15-.08.07.08H282Zm.22,4.12-.3-.07-.08-.23.08-.15v-.15l.23.15Zm-.3-1.05v.15h-.23l-.3-.15-.07-.3.15-.07.22.07Zm-.15,3.38.07-.45.23.15.08.23-.08.23-.15.3-.15-.07v-.3l-.23.15-.15.3-.3-.3v-.15Zm-.15,3.3-.08.07-.22-.15v-.15l.22.07v.08Zm-.9-2.1-.07-.15V149l.22.23.08.22Zm.15,13.94-.07.23h-.15l-.08-.15v-.15Zm-.07-13.2-.15.08V150Zm-.15-3.07.15-.3.07.15-.07.15Zm.15-2.4v-.15l.3.08.07.3Zm.45,2.85-.15-.08.15-.07Zm-.38-3.75-.6-.23.3-.67.08-.08.37.45.15.53Zm-.3,14.4-.15-.15.07-.15.15.15Zm.08.75-.15.08.08-.15Zm-.53-7.35v-.15l.3.23.15.3-.08.45-.15-.15.08-.15Zm-.53-1.5h-.15l-.22-.3.38-.67.53.22.07.15-.15-.07-.3.07-.23.45ZM278,165.48l-.6.3-.15-.23v-.22l.53-.15.3.15Zm.07.9-.6.23-.08-.3.08-.15Zm-.07-2.1-.23.15-.38.38-.08-.15.23-.67H278l.38.23-.23.15Zm-.08-16.5.15-.08.08.08-.23.38h-.15Zm-.08-6.45.23-.23.08.3-.08.15H278Zm.45,9-.15.15v-.15Zm-.15,1.58.07.15-.3.08-.08-.23Zm-.23,3.67v.23l-.08.08-.3-.23.08-.23h.15Zm-.23-3V153l-.07-.45-.38-.22.23-.15.15.07-.08.08Zm-.22.75-.15.15v-.23Zm.07,3.67v.23l-.3-.23Zm.23,1.13v.22h-.15l-.15-.3Zm-.15-6.52-.08-.08v-.15l.23-.08Zm0-.6-.38.08-.15-.08.07-.3.23-.23h.15l.08.3Zm0,8.17h.6l-.53.38-.38.08-.15-.08-.07-.15Zm.53-2.32v-.15l.22-.08-.07.23Zm-.75,4.2.3-.15.08-.15.07.08-.22.23v.15H278l-.23.22-.45-.15Zm.82,2.17v-.15l.23.07v.15Zm.08-2.77-.08-.23.23.08v.15Zm.07-6.6-.37-.15v-.15l.22-.07.23.15Zm0-4.43v-.15l.3.08v.15l-.15.07Zm-.07-1.2.3.08.23.3v.15h-.23Zm.15,1.72.38.08.07.15-.15.07-.3-.15Zm.3,3.38.15-.15h.15l-.07.45-.23.07Zm.23-7.5h-.15l.07-.3.23-.08Zm.15,2.48-.08.07-.07-.15Zm0-4.2.23-.15-.08.08Zm.07,3.53.15.15h-.15Zm.23,1.05v-.23h.15l.08.23Zm.23-.9h.15l.08.15-.15.08Zm.6,3.07v-.3l.15.15v.15Zm-.07-1.05.07-.07v.07Zm0-5.47.07.08-.22.07Zm-.08.6.08.07-.15.08Zm0,2.4-.07.15h-.3v-.15l.23-.08Zm-.53-2.18-.22.08-.15-.15.15-.3.3-.07.15.07Zm-.15-1.65-.53.45h-.15l-.15-.15v-.23l.23-.15.6-.07Zm-.53,4.12-.22.38-.15-.08.08-.15Zm-.38-1.87h-.15l-.15-.15v.45l-.22-.15.07-.3.15-.15h.3l.08.15Zm-.22-1.87-.3-.3.37-.53h.15Zm-.75-1.8h-.15l-.08-.3.08-.15.15.15Zm.08.15v.38l-.15-.07v-.3Zm-.08,5.78.15.07v.23h-.15l-.07-.15Zm-.23,1.27v.3l.53-.07-.22.23-.38-.08-.3-.23-.15-.45.15-.15.22.15Zm-1,2.7-.23-.07.08-.3.15-.08.3.15.23-.15v-.15l.08.15-.23.38Zm.23,4.88V157l-.15-.07-.08-.15Zm-.08-6h.08l-.23.08v-.15Zm-.15-4.35v-.22l.23.22Zm.82.67-.22.08-.08-.3.3.07Zm-.3-3V144l.23.07Zm.08-1.35-.08-.15h.15l.08.15Zm-.75,16.42v.3l-.23.15-.15-.07v-.15l.23-.15Zm0,4.42.23.23h-.23Zm.23-1.58.15-.22.15-.08v.3Zm.07,9.3h-.22v-.15Zm.08-9.07h.22l-.07.23h-.15Zm.45.9.23.15.07.23-.3.07-.23-.15Zm.75,5.7.07-.15.15.08-.15.23-.15-.08Zm.15,2.4.3.15v.15H278Zm.15-2.77.23.07-.08.15Zm0-3.75.08-.15.22.15.23.37h-.15Zm.38-6,.07-.3.3-.07-.08.3h-.15Zm.45,2.77.15.08-.07.23-.15-.15Zm0-3.75-.15-.07v-.23l.23-.38.22.08.08.67-.15.07Zm.23,2.33.15-.45.15-.15h.15v.67l-.22.08Zm.23,2.92-.08.3-.15-.08.07-.3Zm.07-4.27h-.3l.45-.6Zm.08-2.77.07-.15.6.45.07.45-.37-.37h-.3Zm.67,4.12.07-.15.23.53-.07.67-.23.07-.08-.22Zm.53,3.75.07.45-.07.15v.08l-.15-.08-.23-.67Zm0-11.85v-.15l.15-.08.23.08.22.23v.15H281Zm.22,18.14h.15v.15l-.08.15-.15-.15Zm.15-13.27.07-.15.3-.15-.15.45h-.15Zm.22-6.83V150h.23l.15.38-.08.08Zm.38,14h.15l-.23.15Zm.08-13.65.15-.3.15.07-.08.38ZM282,122.3h.15l-.15.3-.07-.15Zm0,7.72.15.22-.07.15-.75-.15ZM281,120.87l.15.15-.15.08Zm.15,14,.22.45-.3.07-.08-.23Zm-.15,4.42v.23l-.22-.53Zm-.07,2.63v.15l-.3.08-.08-.08-.15-.07.23-.15Zm-.67-7,.07-.15.23.08-.23.3-.15-.15Zm-.38,1.13.15-.15.08.23-.23.23h-.15Zm0,1.65.38-.08.15.08v.15l-.67.3Zm.3,3.75-.07.45-.38.22v-.38l-.15-.3.07-.07.08-.15Zm-.67-1.58.08-.15.07.08Zm-.15-2.47-.3-.08-.08-.15h.6Zm-.08,3.75v.15h-.15l-.15-.23v-.15Zm-.15-4.27-.15-.08.15-.22.08.15Zm-.22-3,.07-.07.15.3-.22-.08Zm.07,1.28v.07h-.07Zm-.22,7.27.67.08.07.08.23-.15.45.08.08.23-.15.07-1.28-.07-.3-.15Zm-.15-2.25-.15.15-.07-.08-.08-.15Zm-.45-2.25.08.15-.3.07-.15-.07-.15-.3Zm-.82-1.28.07-.07.15.07-.08.23-.15-.08Zm-.23,1.87.15.15-.07.15-.15-.15Zm-.23-3.07-.15-.07V135l.23.3Zm-.45-12.6h.15l.15.07.15.45-.22-.15-.6.15Zm-.53,17.92.38.08-.08.15-.3-.08Zm.15,6.52.08.38-.23.3-.22-.23.15-.45Zm-.6-4.42h.23l-.08.3h-.15l.07-.15Zm.15,6.07H276l.08.08-.6.23-.07-.08Zm-.3,11.47-.23.23h-.15l-.08-.15.15-.15Zm-.3,2.85h-.37l-.15.07-.22-.45.38.08.22.22.08-.22H275Zm.08,1.5-.23.08v-.08l.08-.23Zm-.6-2.25.23-.15h.15l-.15.23Zm.45-.45L275,162l.15.15-.08.15Zm-.08-14.4.3.07.07.23-.07.15-.3-.07Zm.08,1.2.07.15h-.15ZM275,159l.15.15-.23.07-.08-.15Zm-.3,1.05h.23l-.08.22-.15.08-.07-.23Zm-.23-3.82-.07.15h-.15V156h.15Zm-.07,3.15v.07l-.23-.07.08-.15Zm-.23-5,.08-.15.07.08Zm-.22-5.85h.22l.08.22-.3-.07Zm0,.67.3.15v.15h-.3l-.15-.15Zm-.23,11.62.23-.15.67-.08-.15.23-.3.15h-.45Zm.38,3.75v-.23l.15-.3.07.15.53-.23.15.15-.15.22-.53.23Zm.53.67v.15l-.15-.07-.07-.15Zm.22.9v.15l-.15-.08-.23-.75.23.07.08.15.45-.37Zm.38-1.87v-.08h.23Zm.38-2.48h.15l-.07.3h-.15l-.07-.15Zm.15.75-.07.15-.08.07-.08-.07Zm-.23,2.55.6-.82.38.07-.23.3v1.05l-.3.23-.23-.07.23-.38v-.15Zm.6,2.1.07-.23-.3-.53h.23l.3.38v.3l-.15.08Zm.23,5.1.07-.15.23-.08.07.15Zm.6-3.9h.15l.08.07v.38l-.08.08-.3-.3Zm-.08,2.85.23-.38.3-.15-.07.23-.3.3Zm1.05,2.7-.67-.07.3-.08.15-.15h.15l.07.15Zm.9-1.58-1.12-.15,1-.22.23.22Zm-.07-10.2-.08-.15h.23l.07.15Zm.3,2,.15-.3v-.08l.45.53-.6.15Zm.6,1.13h-.22v-.15h.15Zm-.38-.45-.15.08.23-.23Zm.38,5-.22-.15.15-.38.15.38Zm-.07-2-.15-.08v-.23h.37Zm.45-4.95-.23.22-.15.08.15-.23-.07-.38.3.08Zm-.23-5.55-.15.07.15-.22.3-.15Zm.53,13,.08-.15.08.08Zm.15-3.15-.23-.15.38.08Zm.22-2.1-.38-.23-.15-.3.3.07.22.3Zm.15,7.65h-.07l.22-.15Zm.38-1.72-.3-.15.07-.3.3.3Zm.67-.67-.15.08-.08.07.08-.22h-.53l.45-.08.15-.23.15.08Zm0-2.1-.3.07-.08.08-.3-.08L281,168l.08-.15.6.08.23.15Zm.23-16.35-.08.15-.15-.15.23-.23h.15Zm.23,5.32v-.38l.15.38Zm.3-12.37-.15-.08.22-.22.23.07.08.15Zm.45,1.43h-.15l.08-.6.22.23Zm.15-14.85.08-.15.07.08Zm.45,10.8-.15.08-.08-.23.15-.22h.15Z"/><polygon class="cls-2" points="56.03 162.41 56.1 162.41 56.03 162.34 56.03 162.41"/><polygon class="cls-2" points="198.42 162.41 198.49 162.41 198.42 162.34 198.42 162.41"/><path class="cls-2" d="M223.69,151.82l-.06-.35.37-.08.3.6.3.08-.23.23H224a8.92,8.92,0,0,1,1.47,4.67,8.48,8.48,0,0,1-.48,2.73c0,.79-.1,2.43-.13,4.62l0-.17v-1.43l.15-.6.15-.22.23-2.18.53-2.47-.07-.23.22-.45.3-1.5.53-3.75.6-3.75.15-.67.3-.75.15-.08.23.38.45,1.95-.07.3.3,1,.08,1.35.22.75.08,1.2.23.75.6,3.6.15.67-.07.83.22.45.08,1.05.3,1.2.15,1.2.15.38.08,1.2.23.6.07,1.5.3.83.2,1.76a7.65,7.65,0,0,1,3-1.32v-.15h.07c0-.11,0-.23,0-.35a6.72,6.72,0,0,1,3.3-5.58l-.43-.14.15-.15.36.24q.29-.18.59-.34l-.2,0,.3-.23.15.08v.07l.38-.17-.15,0,.3-.3.28.17a8.19,8.19,0,0,1,2.82-.52,6.94,6.94,0,0,1,1.22.12l.33-1.79.15-1.87.3-.6.38-1.72.22-2.7.23-.6-.07-.15.07-1.28.3-.52.08-1.58.3-1.28.23-.53.07-.45-.07-.6.3-.82.3-1.8.08-1.65.23-.6v-.67l.22-.3.08-1.2.3-1,.15-2.1.38-1.2.08-1.2.45-1.43-.15-.75.23-.15.45-2.7-.08-.3.38-1.65.08-1.43.3-.67.15-.75v-.6l-.53-.83-.53-.15-.15.08h-1l-.67-.23-.45.15h-1.05l-.15-.07h-2.4l-.37.15-.3-.15-1.27.22-.53.83-.15.75-.15,2.18-.45,2.7-.22,1v.6l.07.15v.67l-.45,1.27v1.35l-.23.52-.23,2.55-.38,1.5V138l-.15.38v.67l-.07.15v1.95l-.3.53-.3,1.8v.75l-.07.15-.15,2.1-.38,1.43-.15,1.5-.3.53L237,150l-.45-1.2-.3-2.17-.23-2-.23-.82-.07-1.27-.3-1.2v-.83l-.15-.22-.6-.23-.08-.15.6-.15-.3-1.58-.3-2.92-.22-1-.23-.08.23-.38-.08-.9-.23-.38v-2l-.22-.6-.38-.38.15-.6-.6-3.3-.38-2.92-.3-.23.15-.22-.08-.6-.3-.75-.45-.3H226l-1.2.15-.45.6-.3,1.12-.52,3.45-.6,3.68-.3,1.12.07.67-.6,2.85-.53,3.9-.15.9-.15.38-.08,1.5-.38,1.27-.07,1.2-.23.9-.08,1.05-.22.6v1l-.23.53,0,.65A14.11,14.11,0,0,1,223.69,151.82Zm25.73-26.45.15.07v.3l-.07.07h-.15Zm-1.05.22.3.15V126l-.07.15-.15-.07-.15-.3Zm-1.2,11.7v.15l-.22-.07Zm-7,21.44-.53.08.08-.3.38-.22.15.07.08.08Zm-.22-.67.07-.15h.15l-.07.23Zm.3-4.95V153l.15.15Zm1.05,6.37h-.15l-.15-.08.07-.23.23-.07Zm-.15.37-.15.08.07-.15Zm-.08-2.25v-.15h.15l-.07.3Zm.45-5.4-.22.15-.3-.07.37-.23h.15Zm-.22-3.75v-.38h.22l-.15.45Zm.15.75-.08.07v-.15h.23Zm.07-6.6v-.15l.15-.08.07.08Zm.38,17.55.08-.08.15-.07Zm-.07-2.18.07-.15.08.08Zm1.12-4.87v.45l-.3-.3.15-.38.23.08Zm.08-2.48-.08-.15.08-.07.07.07Zm.67,1.8-.15-.23.15-.15.15.08Zm1.12-11.4.08-.15.07.08Zm.23-15.29.08-.08.15.08-.08.15Zm.45,19.49-.15.07-.07-.15.3-.15Zm.3-4.87.3.08-.23.15-.15-.08Zm-.23,3.9.07.22-.15.08ZM245,124.32l.23.15.07.3-.3-.07-.08-.3Zm-.53.38.53.07-.15.23h-.3l-.15-.15Zm-.67,22.57v.08l-.15-.08Zm-.08-5.32-.07.08-.23-.15-.07-.3.3.08Zm-.3-17.7v.15h-.15l-.08-.15Zm-.53,2.63.3-.08-.07.3-.23.15h-.15Zm-.6,10.8.45-.23-.15.3-.3.07-.15.08Zm-.08,9.45v.23l-.3-.08-.15-.15V147l.3-.08Zm-.6-6.75h.15l.15.08-.23.22h-.15Zm-.23-2.7.07.15-.22.08-.23-.15Zm-.53,9.07.45.23-.15.22-.3-.3Zm0,13.42H241l-.15.15Zm-.3-18.52.15.15-.15.08Zm.07,4.5-.07.22h-.15v-.15h.07Zm-.45-4.05.23-.07-.08.22h-.15Zm.15,1.87-.07.38-.15.15-.07-.07v-.3l.15-.15Zm-.38-.3.08.08-.15.07Zm-.3,7.65.08-.15.15.08v.15h-.3Zm-.15,4.27h.15l-.15.3-.08-.15Zm-.15,4.12h.22l-.07.23-.15-.08Zm-.45.23.15-.08v.23l-.15.08-.07-.23Zm-.6-3,.07.07-.15.08Zm-.15,3.52.15.08-.15.07Zm-.6-1.58.45.3.07.3-.53-.08-.07-.38Zm.15,1.05.08.15h-.3l-.23-.23-.23-.45Zm-.75-.53-.23-.15.08-.08.15.08Zm-.3-1.12.08-.15h.15l-.07.3h-.15Zm.08,1.57.15.15.08.15-.3-.08-.07-.15Zm-14.32-12.37.07-.15.08.07Zm0-1.65v-.15h.3v.15l-.15.08Zm.37,2.92-.07-.07.23-.08.07.08Zm.53,1.28.08-.15.08.07Zm.15-2.85-.08.15-.15-.3h.23Zm.15-1.12-.23.08v-.23l.23-.15Zm.37.53-.22-.15.07-.08.15-.07Zm-.37-3.75.07-.23.23.08-.08.15Zm1,8.25-.07.07-.23-.22-.07-.6.22.15.15.3Zm-.07-4.27.15-.23.3-.08.15.08-.07.15-.38.08-.08.15Zm.15.9v-.22l.15.07Zm.3-.45h-.15l.15-.23h.38Zm.67-1.5-.15.07-.07.15-.53-.67.07-.15.53.45h.15Zm-1-1v-.15l.08.08H225ZM226,140v-.15l.37-.15.08.08.08.15v.53h-.23Zm1.87-9-.08.38h-.67l-.15.07-.3-.07-.15-.15.37-.38-.07-.08h-.38l.23-.3.45-.08.23.15.07.3.23-.08v-.3l.3.08.15.37Zm.3.53.08.07-.15.08Zm-1.43,8.7.08-.3H227l-.08.3Zm.15,1.35v.23l-.15.08v-.3Zm-.3-2.25.08-.22.15.15Zm0-3.15.15.07-.15.08Zm-.07-.82v-.15h.22l-.07.15Zm.07-1.65.08-.07.3.15.07.15-.15.07Zm-.07,4.27.07.23-.3-.08V138l-.08-.15Zm-.15,1.2.15.08-.15.38-.3-.15v-.3Zm0,1.8-.15.45-.15-.07v-.23l.15-.15Zm-.07,4-.15.08-.08-.15.08-.15.15.08Zm.75-2.1-.07-.15-.6-.15-.07-.15.3-.08.15.08v.15l.38.15Zm.53-5.7-.3.6.08,1.13-.23.22v-1.5l-.3-.3h.53v-.15l-.3-.15-.07-.3.45-.07.45.15-.15.3Zm.75,2.92-.45.07h-.15v-.15l.22-.23.53.08Zm-.07-4.28-.45-.22-.23-.23,1.2.08-.22.37Zm-.08-.82v.15l-.15.08-.15-.08L228,135Zm-.08-.6v-.15l.6-.45.15.3v.45l-.23.08Zm.75,3.9-.23-.3.08-.15.15.07.15.3Zm0-6.6h-.15l.07-.3.15.15Zm.45,11.4-.07.15-.23-.15.15-.15h.15Zm.15-3.82-.3-.15V139l.53-.07.3.07-.07.15Zm.6,1-.08.22-.15.08.08-.3Zm-.3,2.47v-.3l.15-.08.07.23-.07.15Zm.45,4-.07.08-.15-.08v-.15h.23Zm.08-8.55H230l-.07-.15.38-.08.07.15Zm-.15-2.17-.53-.53-.08.15.15.38-.53-.08.23-.53.3-.3.38.38.67.07.08.45-.08.15Zm-.75-2.48.23-.15.15.15v1.13l-.08.22-.23-.22-.07-.38.07-.6Zm-.15-.38-.08-.07h.15l.08.15Zm1.27,5.78.15-.08V139Zm.08.45h.15l-.15.08Zm.23,3.6-.08-.23.08-.15.07.23Zm0-6.15h-.23l.08-.23.3-.15ZM231,135l-.15-.3.15-.08.15.3Zm-.23-1.58V133l.15.08.45.75Zm.6,14.47v-.15l.15.15Zm.15-1.5-.08-.15h-.15l.08-.38.67.3-.23.3Zm.45,8.4h-.3l-.08-.15.08-.15h.45Zm1-2v.15h-.37v-.15Zm-.15-4.12v-.23h.15v.15Zm.23,7,.08.15-.23.07Zm0-4.5-.08-.08.08-.07.15.15Zm-.23-6.75-.3-.15.3-.3.23.15.08.3Zm-.38-.53-.15-.07.3-.23.07.23Zm.23,6.37.15.07-.07.45.07.15-.22.15-.08-.15.08-.15-.45-.23.15-.23Zm-.45,2,.07.15-.22.08-.3-.3Zm-.08,1.35v-.15l.45.15-.08.15h-.3Zm.38,1.2.3.08.08.22-.38-.15Zm.38,5.1.15-.07v.15l-.15.08Zm.3,3.15h-.3v-.23l.38.08Zm0-3.82-.15.08-.08-.08-.07-.15.38-.07Zm.38-.37v-.23l.07.15Zm.53,4.42-.15.07-.15-.22.07-.15.23.15Zm.53,2.4-.23-.15-.08-.15h.3Zm.07.75.15.08-.15.15h-.15Zm-.53-3.67-.07-.15h.15l.07.15Zm.53,4.87h-.45l-.08-.3.15-.07.3.15h.3Zm.3-3.3h-.15l.08-.23H235Zm.67-.3-.3.15.23-.67.23.07Zm.6-3.45.08.45-.08.08-.15.07.08-.15-.15-.23-.07-.38Zm-.45-1.8v-.15h.15l.07.3-.22.15-.08-.15Zm-.3-5.25.15.15-.23.07Zm-.08,9.15.15.08-.15.3-.67-.15v-.15l.23-.15Zm-.3-1.8V161l-.23.08-.08-.23.15-.08Zm-.08-3.45.08-.15h.15l-.08.07Zm.15,4.2-.15.08.08-.15Zm-.3-10,.15.15v.15l-.15.07Zm.08,2.55.15-.08h.15l-.15.3-.23.08Zm-.08,5.4-.15.08-.08-.15.23-.08Zm-.3-9,.22.15v.15l-.22-.15Zm.07,11.25V162l-.9-.15.07-.3.38-.15Zm-.38-7.72-.07.53-.15.15-.08-1.12Zm-.07-1.43v-.22l.07.15Zm-.08,2.63-.07.08v-.15Zm-.15-5.77-.15-.15.15.07Zm.38,0-.15.15v-.23Zm-.3-4.35.15.08-.38.15-.07-.15Zm-.53,6.82v-.15l.15-.07.08.15Zm-.23-12.67.3-.15.08.3-.15.22-.23-.22Zm-.45,1.28.3-.08.23.23v.15l-.23.23-.53-.3Zm0,1.35v.23l-.3-.08.07-.15Zm-.38-.67.08.08h-.23v-.08Zm-.23-3.07.08.07-.15.08Zm-.15,9.07-.53-.23.38-.07.15.15Zm-.23-9.22.08-.15.08.07Zm.08-4.87-.15.08-.08-.15Zm-.3-2.4-.08.15h-.15l.08-.3Zm-.45-1.35.23.15-.15.08-.08-.08Zm-.07.53-.08.3-.22-.07V130l.15-.08Zm-.45-1.43.15.23-.08.08-.15-.08Zm-.15-3.37v.08h-.15Zm.23,5.62.08-.15.15.23-.38.3-.23-.08-.07-.15Zm-.38,1.87.15.08-.15.15-.15-.08Zm-.38-2.1.15-.08v.3H230Zm0,2.25h.08v.45h-.15Zm-.53-6.15.08.08-.08.15Zm-.22,1.87h.22l.08.15v.15l-.08.07-.22-.23Zm-.6-7.2.3-.07.15.15-.08.3-.23.08-.15-.15Zm.38,8v.15l-.23-.08v-.3Zm-.38,1,.23.15v.15h.6l.3.23V131l-.9-.08-.23-.15Zm-.3,1.58.23.07.07.15-.22.08-.08-.15Zm.53,1.12-.08.3h-.22l-.53-.6-.3.15V133l-.3.15-.15-.53-.15-.15.15-.38.15-.07.38.23.08.15.3.15h.15l-.07.3Zm-.82-3.52.23.22-.08.23-.23.15.08-.22-.23-.15-.6.08.53-.3Zm-.6-1v.3l-.15-.08v-.15Zm-.15-.07.08-.15.07.07Zm-.15-.82h.15l.15.07-.07.15-.3.15h-.3Zm-.53,1-.15-.07-.08-.15Zm0,.9.08.15-.3-.07-.07-.15Zm-.75-1.2.07.08-.15.07Zm.22,2.92-.07.3-.15-.07-.08-.15Zm-.45,1.65.45-.15.23.15-.53.22-.15.08Zm-.08,2.47v-.23l.23.08.08.3-.15.23-.22.07Zm.08,3.68.3.3-.15.08-.23-.15-.07-.15Zm-.3,4.87-.3-.07.08-.6-.3.08-.15-.23.15-.38-.08-.15h.53l.08.45.15.23-.23.23v.3Zm-.6-3.37.15.07v.15h-.07Zm.15-1.8.15-.07.3.23.07.75-.3-.07-.15-.67Zm.3-9.52.08-.15.15.07-.07.15h-.15Zm-.22,4.27.15.15-.15.08Zm-.15,2,.07-.15.15.08v.22h-.22Zm-.45.3.23.15h-.23Zm.75.75v.08l-.08.15.08,1.12-.08.15h-.15l-.23-.3-.07-.53-.3-.38Zm-.75,1.72.15.15v.3l-.37-.45Zm-.15,1.2.15.08.08.15-.3-.08Zm0,.9.15.07-.22.08-.3-.3.15-.08Zm-.3-.67-.3-.08-.15-.22.45.15Zm-.3-7h.15l-.23.08Zm0,.53-.15.08-.08-.08Zm-.38,2.7h.15v.22l-.15-.07Zm.15,2.25V138h.15l.15.22-.22.38h-.15l-.07-.15Zm.15,6.22.15.15v.15l-.15.08.23.3v.23h-.23l-.6-.53v-.08l.3-.07Zm-.67-4.2H223l.08.15h-.23Zm-.3,3.6.07.07.15.3-.3-.08-.07-.23Zm-.23.6.15.15h-.15Zm-1.2-2.1.08.08-.15.08Z"/><path class="cls-2" d="M107.18,120.65l-.15.08h-1l-.67-.23-.45.15h-1l-.15-.07h-2.4l-.37.15-.3-.15-1.27.22-.53.83-.15.75-.15,2.18-.45,2.7-.23,1v.6L98,129v.67l-.45,1.27v1.35l-.23.52-.23,2.55-.37,1.5V138l-.15.38v.67l-.07.15v1.95l-.3.53-.3,1.8v.75l-.07.15-.15,2.1-.38,1.43-.15,1.5-.3.53-.15.08-.45-1.2-.3-2.17-.23-2-.23-.82-.07-1.27-.3-1.2v-.83l-.15-.22-.6-.23-.08-.15.6-.15-.3-1.58-.3-2.92-.22-1-.23-.08.23-.38-.08-.9-.23-.38v-2l-.22-.6-.38-.38.15-.6-.6-3.3-.37-2.92-.3-.23.15-.22-.08-.6-.3-.75-.45-.3H83.56l-1.2.15-.45.6-.3,1.12L81.09,126l-.6,3.68-.3,1.12.07.67-.6,2.85-.53,3.9-.15.9-.15.38-.08,1.5-.38,1.27-.07,1.2-.23.9L78,145.39l-.22.6v1l-.23.53-.07,1.2-.23.53V150l-.23.15-.23-.22-.3-.6-.23-1.12-.15-1.58.15-.3-.6-3-.15-1.95-.38-1.28v-1.28l-.38-2.32.08-.38-.23-.45L74.49,134l-.3-1.42L74,130.69l-.23-.75v-1.05l-.45-3.6-.45-2.17.08-.3-.08-.15V122l-.22-.3-.08-.45-.15-.23-.9-.38L70,120.57l-.75.15-.15-.08H68l-.15.08-.3-.15-1.12.07-.75-.15-1.43.08-.9.45-.15.6.22,2.1.15.53.53,4.35.6,2.63.3,1.5.08,1.12.53,2.1.07,1.43.3,1.35.6,4.27.6,3.3.45,2.32-.08.23.23.6.53,3.22.3.83-.07.67.3.67-.15.75.53,2,.07,1.8.6,3.15.3,1.28.6,4,.45,2.25.07,1.2.3.83-.08.07v.6l.38,1.35.23.38.45.3,1.05.3h2.4l.15-.07h2.63l.3.07.38-.15H80l.38-.23.3-.45.45-1.87.08-1.05.3-1.35.6-4,.45-1.72v-1.43l.15-.6.15-.22.23-2.18.53-2.47-.08-.23.23-.45.3-1.5.53-3.75.6-3.75.15-.67.3-.75.15-.08.23.38.45,1.95-.07.3.3,1,.08,1.35.22.75L87,153l.23.75.6,3.6L88,158l-.07.83.22.45.08,1.05.3,1.2.15,1.2.15.38.08,1.2.23.6.07,1.5.3.83.22,1.95.67,3.38.15,1.2.38.75.53.38,1.35.15,1.72-.15,1.43.15.07-.3.38.3,2.18-.15.45-.38.23-.07.15-.23L100,171l-.22-.07.07-.23.3-.07.08-.15.07-1.35.15-.6.15-1.5-.08-.07-.15.23-.15-.08.15-.23.45-.22.08-1.43.23-.75.6-3.52.45-2.48.15-1.87.3-.6.38-1.72.22-2.7.23-.6-.07-.15.07-1.28.3-.52.08-1.58.3-1.28.23-.53.07-.45-.07-.6.3-.82.3-1.8.08-1.65.23-.6v-.67l.22-.3.08-1.2.3-1,.15-2.1.38-1.2.08-1.2.45-1.43-.15-.75.23-.15.45-2.7-.08-.3.38-1.65.08-1.43.3-.67.15-.75v-.6l-.53-.83ZM69,144.42h-.15L69,144l.07.3Zm30.22-4.05h.15l.15.08-.23.22h-.15Zm-.38,18.75v.38h-.15l-.15-.08.07-.23Zm-.23-1.5v-.15h.15l-.07.3Zm0,2.17.08.07-.15.08Zm.15,2.32.15.15-.15.45-.3.23.08-.3v-.45Zm.08-9.75-.3-.07.37-.23h.15v.15Zm0-3.9v-.38h.23l-.15.45Zm.15.75-.08.07v-.15h.23Zm.08-6.6v-.15l.15-.08.07.08Zm.22,18.75v-.15l.15.07v.15l-.3.08Zm.08-3.38.07-.15.08.08ZM99,137.67l.08.15-.23.08-.23-.15Zm-.53,9.07.45.23-.15.22-.3-.3Zm0,13.42h.15l-.15.15Zm0,1.8-.53-.22.23-.08.22.15Zm-.15,4.65.07.3.08.15-.38-.22-.15-.23v-.3Zm-.38-1.2v-.15h.15l.08.15Zm.38-.3-.38-.23-.15-.3v-.3l.07-.15.23.15.38.75Zm-2.85,3.3-.07.37-.08.15-.37-.38-.45.07-.15-.07v-.15l.82-.08.38-.15.3.38-.22-.08v-.15Zm-.07,1.27-.15.23-.08.15-.38-.15.38-.38h.15Zm-1,0-.08-.07.23-.08.15.08v.15Zm.07.82-.07.08v-.23Zm.75-5.32-.15-.07.07-.23h.15l.08.08Zm.15,1.65-.08.3-.15.08-.15-.08V167l.15-.15Zm-.15-3.15h-.15l-.15-.15.07-.23.38-.15Zm.38,4.12-.15-.07.23-.23.38.07.08.23-.3-.07Zm.22-2.32.08-.15.07.07v.15Zm.08-1.28.15-.23.3-.07-.07.45h-.15Zm.07-1.72v-.23l.15.15Zm.6,2.63.08.23-.23.07-.08-.3Zm.38,1.27.22.23v.15l-.37-.15-.15-.3Zm.15-1.87h-.45l-.15-.07.3-.3h.67l-.08.22Zm-.75-.82v-.3l.3.15-.08.3Zm1.28-5.4.15.07.07.08-.15.3-.53.08.08-.3Zm-.15-.23.07-.15h.15l-.07.23Zm.3-4.95V153l.15.15Zm-.3,7.42.37.22.08.15v.15l-.75-.23Zm.37,2.7.08-.15.23.15-.15.38-.15-.08Zm-.07-.75-.23-.07v-.15l.08-.07.22.15Zm-.45-.07.07.22h-.23v-.22Zm.3,3.07h.15l.07.22-.3.3-.07-.3Zm.53-23.84.15.15-.15.08Zm.07,4.5-.07.22H98v-.15h.07Zm-.45-4.05L98,142l-.08.22h-.15ZM98,144l-.08.38-.15.15-.07-.07v-.3l.15-.15Zm-.38-.3.08.08-.15.07Zm-.3,7.65.08-.15.15.08v.15h-.3Zm-.15,4.27h.15l-.15.3-.08-.15ZM97,159.71h.22l-.07.23-.15-.08Zm-.15,1.2L97,161v.15l-.15.08-.3-.08Zm-.3-1,.15-.08v.23l-.15.08-.07-.23Zm-.6-3L96,157l-.15.08Zm-.15,3.52.15.08-.15.07Zm.45,1.12.23-.07-.15.15-.67-.23.15-.15Zm-1.05-2.7.45.3.07.3-.53-.08-.07-.38Zm.15,1.05.08.15h-.3l-.23-.23-.23-.45Zm-.6,3.15-.15.07.07-.15Zm-.08,3.07-.15.22h-.22l.07-.3.23-.15Zm-.07-6.75-.23-.15.08-.08.15.08Zm-.3-1.12.07-.15h.15l-.07.3h-.15Zm.07,1.57.15.15.08.15-.3-.08-.08-.15Zm-.07,3.6-.08.15h-.08Zm-.45-2.92.08.45-.08.08-.15.07.08-.15-.15-.23-.07-.38Zm-.45-1.8v-.15h.15l.07.3-.22.15-.08-.15ZM93.24,164l-.3.15.23-.67.23.07Zm.15,2.77-.23.08v-.15l.15-.08Zm-.3-13.27.15.15-.23.07ZM93,162.63l.15.08L93,163l-.67-.15v-.15l.23-.15Zm-.15,4.88v.15h-.15v-.15Zm-.23-3.45-.07.23h-.15l.08-.23Zm-.45,1.28v.3l-.23-.15-.07-.15Zm-.45-2.63-.07-.15h.15l.08.15Zm.53,3.67.15.08-.15.15h-.15Zm.45-5.55V161l-.23.08-.08-.23.15-.08Zm-.08-3.45.08-.15h.15l-.08.07Zm.15,4.2-.15.08.08-.15Zm-.3-10,.15.15v.15l-.15.07Zm.08,2.55.15-.08h.15l-.15.3-.23.08Zm-.08,5.4-.15.08-.08-.15.23-.08Zm-.3-9,.22.15v.15l-.22-.15Zm.07,11.25V162l-.9-.15.07-.3.38-.15Zm-.6,1.28v.15l-.15.07-.15-.22.07-.15Zm.23-9-.08.53-.15.15-.08-1.12Zm-.08-1.43v-.22l.08.15Zm-.08,2.63-.07.08v-.15Zm-.15-5.77-.15-.15.15.07Zm.38,0-.15.15v-.23Zm-.3-4.35.15.08-.38.15-.07-.15ZM91.14,152v-.15l.15-.07.08.15Zm-.23-12.67.3-.15.08.3-.15.22-.23-.22Zm-1.2,11.17.15-.23.38-.07.15.07-.07.45.07.15-.22.15-.08-.15.08-.15Zm.15,1.87-.22.08-.3-.3.45.07Zm0-8.62.3-.23.07.23-.23.07Zm.3,9h.37v.15h-.37Zm.22-4.12v-.23h.15v.15Zm.23,7,.07.15-.22.07Zm0-4.5-.08-.08.08-.07.15.15Zm-.23-6.75-.3-.15.3-.3.23.15.07.3Zm.08-2.17-.3-.08.07-.15h.23Zm-.38-.9.08.08h-.23v-.08Zm-.23-3.07.08.07-.15.08Zm-.15,9.07-.53-.23.38-.07.15.15Zm-.15-14.1-.15.08-.08-.15Zm.08,4.8-.15.08.07-.15Zm-.38-7.2-.08.15H89l.08-.3Zm-.45-1.35.23.15-.15.08-.08-.08Zm-.07.53-.08.3-.22-.07V130l.15-.08Zm-.45-1.43.15.23-.08.08-.15-.08Zm-.15-3.37v.08H88Zm.23,5.62.08-.15.15.23-.38.3-.23-.08-.07-.15ZM88,132.64l.15.08-.15.15-.15-.08Zm-.38-2.1.15-.08v.3h-.15Zm0,2.25h.08v.45h-.15Zm-.52-6.15.07.08-.07.15Zm-.23,1.87h.23l.07.15v.15l-.07.07-.23-.23Zm-.6-7.2.3-.07.15.15-.08.3-.23.08-.15-.15Zm.38,8v.15l-.23-.08v-.3Zm-.38,1,.23.15v.15h.6l.3.23V131l-.9-.08-.23-.15Zm.75,3.22.23-.15.15.15v1.13l-.08.22-.22-.22-.08-.38.08-.6Zm-.15-.38-.08-.07h.15l.08.15Zm-.3-1.58-.08.15h-.15l.07-.3Zm-.6.3.23.07.07.15-.22.08L86,132Zm.53,1.12-.08.3h-.22l-.53-.6-.3.15V133l-.3.15-.15-.53-.15-.15.15-.38.15-.07.38.23.08.15.3.15H86l-.08.3Zm-.75,1.43v-.15l.6-.45.15.3v.45l-.23.08Zm.08.6v.15l-.15.08-.15-.08.07-.22Zm-1.43,5.17.08-.3h.15l-.08.3Zm.15,1.35v.23l-.15.08v-.3Zm-.3-2.25.08-.22.15.15Zm-.3-1.2V138l-.08-.15.3.07.07.23Zm.23,1.13-.15.38-.3-.15v-.3H84Zm.15-3.9h-.15v-.15h.22Zm.07.9-.15.08v-.15Zm-.15-2.55.08-.07.3.15.08.15-.15.07Zm.38-2.25-.3-.07-.15-.15.37-.38-.07-.08h-.38l.23-.3.45-.08.23.15.07.3.23-.08v-.3l.3.08.15.37-.22.08-.08.38h-.67Zm1.2.08.07.07-.15.08Zm-.15-2,.22.22-.07.23-.23.15.08-.22-.23-.15-.6.08.53-.3Zm-.6-1v.3l-.15-.08v-.15Zm-.15-.07.08-.15.07.07Zm-.15-.82h.15l.15.07-.07.15-.3.15h-.3Zm-.53,1-.15-.07-.08-.15Zm0,.9.08.15-.3-.07-.07-.15Zm-.75-1.2.08.08-.15.07Zm.23,2.92-.07.3-.15-.07-.07-.15Zm-.45,1.65.45-.15.23.15-.53.22-.15.08Zm-.08,2.47v-.23l.23.08.07.3-.15.23-.22.07ZM83,144l-.3-.07.08-.6-.3.08-.15-.23.15-.38-.08-.15h.53l.08.45.15.23-.23.23v.3Zm-.38.75-.23.07v-.15l.08.08Zm-.23-4.12.15.07v.15h-.07Zm.15-1.8.15-.07.3.23.07.75-.3-.07-.15-.67Zm.3-9.52.08-.15.15.07-.07.15h-.15Zm-.22,4.27.15.15-.15.08Zm-.15,2,.07-.15.15.08v.22h-.22Zm-.45.3.23.15H82Zm.75.75v.08l-.08.15.08,1.12-.08.15h-.15l-.22-.3-.08-.53-.3-.38ZM82,138.34l.15.15v.3l-.37-.45Zm-.15,1.2.15.08.08.15-.3-.08Zm0,.9.15.07-.22.08-.3-.3.15-.08Zm-.23,5.85v.3l-.22-.15.07-.08Zm-.37-3.45.07-.23.23.08-.08.15Zm.3-3.07-.3-.08-.15-.22.45.15Zm-.3-7h.15l-.23.08Zm0,.53-.15.08-.07-.08Zm-.38,2.7H81v.22l-.15-.07Zm.15,2.25V138h.15l.15.22-.23.38h-.15l-.07-.15Zm.15,6.22.15.15v.15l-.15.08.23.3v.23h-.23l-.6-.53v-.08l.3-.07Zm-.67,13h.15l.08.15v.15h-.15Zm.08,4.73v.15h-.15l-.07-.15.07-.08Zm-.08-5.1-.15-.08v-.15l.23-.15.3.07-.08.23ZM80,145.84v-.15h.3v.15l-.15.08Zm.15,1.58-.15.08.07-.15Zm.38,1.2.07.08-.23.07-.07-.07Zm-.15,6,.23.15-.07.15-.08-.07Zm.3-1.05v-.15h.15l.15.15v.15h-.15Zm.15,4.95H81l.07.15-.07.15-.23-.15Zm.07-8.47.08-.15.07.07Zm.08-2.7-.15-.3h.22v.15Zm0-1.2v-.23l.23-.15v.3Zm-.53-5.85h.15l.08.15h-.23Zm-.3,3.6.07.07.15.3-.3-.08L80,144Zm-.23.6.15.15H80Zm-1.2-2.1.08.08-.15.08Zm.53,10.8.08.15.07.07-.53-.15-.23-.45Zm-.23,2.4h-.15v-.22l.08-.15.15.22Zm.08,1.05-.15.15-.08-.07Zm-.08-2.25.6.08v.3l-.45-.07Zm-1.12,3.82.07-.15h.45l.07-.15.6.67.07.23-.22.45-.23-.6h-.45l-.38-.23-.08-.15Zm.75,3.22-.22-.22.15-.45.23-.15.15.08v.15Zm.08,2.25-.08.3v.3h-.15l-.15-.52Zm-.3-3.3.07-.22.15.07-.07.08Zm-.15-1.12v.15l-.3-.07v-.23h.15Zm-.6.38h.38l-.08.3-.22.15-.08-.3Zm.08,2.47.6-.22h.15l.08.3-.23.23-.3.07-.45-.15Zm.15,1-.15-.3.3.08.23.23v.3Zm.23.45v.23h-.3v-.15Zm-.6-.9-.07.3-.15.07-.15-.07.08-.23.15-.08Zm-.75,0-.15-.15.38-.38.15.08v.15Zm.53-1.42.08.15-.08.3-.22.23h-.3l-.3-.15-.23.15.3.37-.38.53h-.15l-.08-.15V162l.08-.15v-.6h.3l.15-.22.3-.08Zm-.37-3.3v-.38l.22.3Zm0-.75.15.15v.15l-.23-.22Zm-.68,1.65.23.15-.15.53-.08-.08Zm-.07,1.42.45-.22.3.07-.15.3-.37.3-1.2-.45.22-.22.6.22Zm-1.28,7.57-.37-.3v-.3l.3.15.38.38v.15Zm.15,2.4-.3.08v-.38Zm-.53-4,.45-.45.15.75-1.2-.38-.15-.15.07-.38.23-.23h.3l.15-.15V165l.22-.38H75l.23.3-.15.08-.08-.08h-.15l-.3.67-.15-.07-.22.15-.08.38Zm-.9,1.8-.38.15V168l.15-.3.15-.08.15.08.08.08Zm.15.67h-.23v-.15h.15Zm-.53-3.6-.15.07.07-.15Zm-.08-.52v-.15h.15l.07.3h-.15Zm.38.45-.07-.22.15.07h.45l-.23.23Zm.38-7.8.08.07.07.15-.07.15-.53-.15.15-.22Zm-.3-1.35v-.23l.3-.08-.08.3-.15.07Zm.75,3.9h-.15v-.3h.23l.67.6-.67.3.08.23.22.15-.07.45.38.15-.08.22-.45-.15-.38-.45-.67.3.45-.67.3-.23.23-.53Zm-.15-2,.15-.23.23-.08.15.08.15.45-.3.08-.3-.15Zm.67,5.55-.22-.07v-.15l.15.07Zm-.67-.07-.3.07-.38-.15v-.3Zm-.6-.82h.22l.08.22-.23-.07Zm.53-.08.15-.3.15.07v.15l-.15.15Zm.22,1.43.23.15-.07.15-.15-.15Zm.75-1.05-.15-.3.3-.08v.45Zm.15.38.08.07-.15.08Zm.45-7.72.07-.15.23.22h-.3Zm.07.6.15.3-.07.15-.23-.15-.08-.45Zm-.6-1.8.07.07-.15.08Zm-.23-1.5.15.08-.07.3-.23-.07Zm-.3.9.22.08-.22.23Zm.38,1.2h-.15v-.15Zm-.3.75H75l-.23.23-.22.15Zm.23.82h.08l.3.38h.15l-.08.3.3.9.37.23-.07.15h-.15l-.15.15.15.38-.08.15-.53-.08-.07-.15.15-.23.22-.07-.15-.3-.15-.08-.22-.67-.15-.08.08-.37-.08-.3-.15-.07-.22.15-.08-.15Zm-.67-4.2.15.15v.15l-.23-.15Zm0,2.62.07.15.08.23-.08.08-.45-.38-.08.3h-.15l-.15-.15v-.15l.15-.08Zm-.38-2.4.08.23-.08-.08Zm-.08.6v.15l-.07.3-.15-.07.07-.3ZM73.59,142l.15.15v.15l-.15-.15Zm-.22,6.67h.15l.07.3-.15.08-.15-.15Zm-.15,4h.15l.07.15-.07.15h-.15l-.07-.15ZM73,142.54l.15-.15v.08Zm.22-.53-.15.07h-.15v-.6l.3.15ZM73,140.36l.15.08v.15l-.38.07-.07-.22Zm-.15,16.42h-.15v-.15Zm-.53-17.69.07-.15.15.07-.3.6-.15-.15Zm-.45-.45.15.15v.15l-.22-.15Zm-.15.75h.23l-.15.15h-.15ZM71.64,142l.22-.08.08-.3.23-.15.45.07.08.15v.15l-.23.15-.6-.08-.15.38-.15-.23Zm.9,5.25v.08h-.15v-.15Zm-.3-4.87v.23l-.07.08v-.3Zm-.6.6h-.15v-.23l.08.08Zm0,5.92-.08.08v-.23Zm-.38-15.82.07.07-.15.08Zm-.08,9.45.3.07-.15.15-.15-.07Zm.53,10.27V153l-.15.3-.23-.15-.15-.37Zm-.75-4-.15.07.08-.15Zm-.23-5.32h-.15l.07-.3.23-.08Zm-.08-4.73.08-.15.07.6-.15.07-.07-.3Zm-.15,2.48h.15l.23.23-.23.38-.22-.23Zm-.15.75.53.15v.15l-.3.07-.23-.22Zm-.3,8.47h-.15l-.08-.23.3-.07Zm.07-6.82.15-.23.07.08v.23Zm.3,11.32.07-.15.08.07Zm-.08-8.17-.07-.15.45.07.07.15-.15.08Zm.38,5.25H71l.07.23-.23.07Zm.07,1.2.08-.08.15.23h-.15Zm.38,1.8-.15.08.08-.3.3-.3-.3-.38v-.23l.37.15.3-.22h.15l-.23.37h-.15v.23l.23.23v.15h-.23Zm.3.53.23-.3.15.08.23.45v.3l-.45-.53Zm.6,2.33-.08.15-.15.08v-.3l.15-.07Zm.38,5.55-.08.07-.15-.07-.23-.6.15.08.15-.08.15.3Zm-.08-2-.15.08.08-.23h.15Zm.23,9.37.08-.15.07.07Zm.3-4.73-.15.15h-.15l-.08-.15.3-.38.15.08Zm-.15-3.75v-.15l.15.07Zm0-2.1-.15.08-.38.15-.38-.38-.22-.53.3.08.3.3.3-.08.15-.3-.08-.53.23-.15.6.08.3-.08L74,159l.15.22-.07.08L72.91,159l.08,1Zm.38,3.07.07-.07h.23l.08.6-.15.23-.3.15.15-.3Zm.3,6.52h-.3v-.15l.23-.15.15.15Zm.15,1.05.08-.07.15-.08-.15.23Zm.45,1.87-.23-.07-.08-.3.23.08.08.15ZM74,171.41l-.15-.07V171l.23.23Zm.08-1.2.07-.15.08.08Zm.3-2.4-.08.08-.15-.08.23-.15Zm.23,3.53-.15-.08.15-.45.3.15-.08.3Zm.3,1.2.07-.15.08.15Zm.45-1H75l.15-.22h.15Zm.08-5.85-.08-.07.23-.15.23.07-.15.15Zm.6,5.47h-.15l-.07-.15.07-.07L76,171Zm.53-5,.15.15v.23l-.3-.08v-.3Zm-.15-.53.08-.15.15.07-.08.15Zm.3,2.47v.15h-.22l.07-.23Zm.15,1.28-.53.23-.07-.3v-.22Zm-.53-2.33h-.15l-.07-.22.15-.08h.15Zm-.07,5.25-.08-.08.08-.15.15.15Zm.6-.3-.07.15-.15-.08v-.15l.15-.15h.15Zm0-1.28-.15.08-.07-.15.07-.15.3-.15Zm.08-5.47-.15-.38-.15.08-.53-.3-.15.08V164l.3.15,1.35-.15-.07.67h.3v.15l-.23-.08-.07.3.37.6.38-.08-.15.6-.08.38-.15-.08.08-.3h.15l-.75-.75-.07-.53-.08.08-.15.3Zm1.43,3.37-.45-.22.38-.08Zm-1.13-2.85.23.23h-.15l-.15-.08Zm.08,1.43v-.83l.23.83.15.07.15.3-.45-.22Zm.23,3.82h-.08v-.15h.08Zm.07.6.23.22-.08.08-.15-.08Zm.38,1.35h-.23l-.07-.23.15-.15.22.23Zm.45-3.45-.07-.23.15.08Zm.53-4.57-.07.15-.53-.38.22-.15.67.15Zm.23,5.25.07-.15.08.08Zm.07-6.45.08-.23.15.15Zm-.37-.38.07-.53h-.07l-.08-.15.08-.15V162l.07-.15h.15l.08.15-.08.3.53.45Zm.82,4.27-.15-.15.07-.08.15.08Zm.07-5.47-.3-.15.08-.23.22-.07Zm-.15-3.9v-.15l.15.15Zm.3-2-.15-.08V156l.38.07Zm.3,1.65v.15L80,158l.07-.22h.15Zm.07-3.9-.15.07-.22-.3-.38.3-.08-.3,1-.38h.08Zm.38,11.85V166l-.3-.15.15-.15h.23Zm.3-1.35-.22-.07.07-.23.23-.07.07.3ZM81,160l.07-.15.08.08Zm.67-7.2-.15.07-.15-.07.15-.15h.15Zm.3-.52h-.6l-.15-.82.37-.08.3.6.3.08Zm.3-1.2-.08.07-.23-.22-.07-.6.22.15.15.3Zm-.08-4.27.15-.23.3-.08.15.08-.07.15-.38.08-.07.15Zm.15.9v-.22l.15.07Zm.3-.45h-.15l.15-.23H83Zm.67-1.5-.15.07-.07.15-.53-.67.07-.15.53.45h.15Zm.08-6.3-.23-.15-.07-.15.15-.07.3.3Zm.23.52v-.15l.37-.15.08.08.08.15v.53h-.23Zm.37,1-.15.45-.15-.07v-.23l.15-.15Zm-.07,4-.15.08-.08-.15.08-.15.15.08Zm.75-2.1-.08-.15-.6-.15-.07-.15.3-.08.15.08v.15l.38.15Zm.52-5.7-.3.6.08,1.13-.23.22v-1.5l-.3-.3H85v-.15l-.3-.15-.08-.3.45-.07.45.15-.15.3Zm.75,2.92-.45.07h-.15v-.15l.22-.23.53.08Zm-.08-4.28-.45-.22-.23-.23,1.2.08-.22.37Zm.6,2.48-.23-.3.08-.15.15.07.15.3Zm.45,4.8-.07.15-.23-.15.15-.15h.15Zm.15-3.82-.3-.15V139l.53-.07.3.07-.07.15Zm.6,1-.08.22-.15.08.08-.3Zm-.3,2.47v-.3l.15-.08.07.23-.07.15Zm.45,4-.07.08-.15-.08v-.15h.23Zm.08-8.55h-.3l-.07-.15.38-.08.07.15ZM87.76,136l-.53-.53-.08.15.15.38-.53-.08.23-.53.3-.3.38.38.67.07.08.45-.08.15Zm.37,2.92.15-.08V139Zm.08.45h.15l-.15.08Zm.23,3.6-.08-.23.08-.15.07.23Zm0-6.15h-.23l.07-.23.3-.15Zm.15-1.87-.15-.3.15-.08.15.3Zm-.23-1.58V133l.15.08.45.75Zm.6,14.47v-.15l.15.15Zm.15-1.5-.08-.15h-.15l.08-.38.67.3-.23.3Zm.45,8.4h-.3l-.08-.15.08-.15h.45Zm.15-1.2v-.15l.45.15-.08.15h-.3Zm.38,1.35v-.15l.3.08.08.22Zm.38,4.95.15-.07v.15l-.15.08Zm.3,3.15h-.3v-.23l.38.08Zm0-3.82-.15.08-.08-.08-.07-.15.38-.07ZM91,140.89l-.23.23-.53-.3.23-.23.3-.08.23.23Zm.15,17.7.07.15-.07.08Zm.38,9.9h-.3v-.15l.3-.15.3.08Zm.22-1.2.15-.07.3.15h.3l-.23.22h-.45Zm.75,3-.08.07h-.3l.3-.45h.15l-.15.23Zm.08-2-.08-.15.67.15-.23.22Zm.82.37v.15l-.3.15-.07-.08.07-.23ZM93,172.91l.07-.15.08.08Zm.15-1.5-.15-.07.07-.15.08.08Zm.45,1.65h-.15l-.07-.15.07-.15h.15l.08.15Zm-.15-5.32h-.15l-.07-.23.15-.23.3.3Zm.23-2.18-.08-.15.53-.15.08.15-.45.23Zm.45,3.3V169h-.22v-.3Zm0,1.87h-.22v-.23h.22l.08.15Zm.15-3.82h.15l.15.15v.15l-.38-.15Zm.3,4.95-.23-.07.23-.08Zm.45.53-.3.08v-.15h.38Zm.38-1h-.3v-.15l.15-.15.45.07Zm.53,2.48h-.15l.07-.23H96Zm-.45-3.15v-.3l.15-.3.15-.08h.15l.07.9Zm.68-2.55h.3v.15l-.23.23H96Zm.15,1.2-.23-.23V169l.3.08.15.37Zm.3,1.43h-.23l.08-.23.3-.08.08.08Zm.3-.83h-.15l-.15-.3.3.15Zm.45,2.33-.08-.08.15-.22.3-.08Zm-.3-1.8v-.07l.23-.08.23.38-.08.3h-.15Zm.6-.9-.53-.53-.15-.3-.3-.15.15-.3.15-.07-.38-.23-.3-.67.15-.08.45.38.9-.08v.15l-.38.3-.23-.23-.22.38.45.15.38.82.45.45.08.37-.15-.07-.23-.38-.23-.08Zm.22,1.2v-.15l.23-.08.08.15-.08.23H98Zm.15,1.72.07-.15v-.07l.23.15.07.3-.07.15-.15-.07Zm.37,1.35-.07.07v-.15h.23Zm.45-2.1h-.23v-.15l.23.07Zm-.08-3.9-.6-.08-.3-.15v-.3l-.15-.15.08-.08.23.23h.15l.15-.15.53.52Zm0-1.58-.15-.08.3-.22.08-.08v-.15l-.23-.23.23-.22.23.07.07.52-.22.3Zm.67,1.43-.15.15H99l.15-.3.15-.07.15.07Zm-.07-.3v-.15l.07.15Zm.22-4.35-.07.07-.23-.22h-.15l.3-.75.15.15-.15.67Zm-.15-2.92.08-.08.15-.07Zm.38-12.82-.3-.08-.15-.15V147l.3-.08.15.23Zm.08-9.52-.15.08.15-.23.45-.23-.15.3Zm.6,15.3v.45l-.3-.3.15-.38.23.08Zm.08-2.48-.08-.15.08-.07.07.07Zm.15-23.54-.23.15h-.15l.15-.38.3-.08Zm.07-2.85H101v.15h-.15Zm.23,17.62-.07-.3.3.08.07.3-.07.08Zm.23,10.57-.15-.23.15-.15.15.08Zm.15-5.1-.15-.08h.15Zm1.2-23,.23.15.07.3-.3-.07-.08-.3ZM102.38,141l.08-.15.07.08Zm.08-16h-.3l-.15-.15.08-.15.53.07Zm.15.75.07-.08.15.08-.08.15Zm.45,19.49-.15.07-.07-.15.3-.15Zm0-.67.08-.3.07.22Zm.38-4-.15-.08.08-.15.3.08Zm1.35-3.15-.22-.07.22-.08Zm1.5-11.47-.08.15-.15-.07-.15-.3.07-.15.3.15Zm.9-.22-.07.07H107l.07-.45.15.07Z"/><rect class="cls-2" x="20.69" y="128.29" width="0.15" height="0.15"/><path class="cls-2" d="M175.1,134.67v.09a7.3,7.3,0,0,1,2.38.58l.1-.14v-.3l-.08-.15.23-.15.07-.53.15-.15h.15l.15.15-.15.45-.3.15-.07.3.07.15v.37a9.27,9.27,0,0,1,1.18.66l.25-.05v-.45l.08-.08.15.08v.3l-.25.37a11.65,11.65,0,0,1,2.53,2.47l0-.07.38.07L182,139l-.09,0a10.23,10.23,0,0,1,2.05,5.7,8.17,8.17,0,0,1-.5,2.67c0,.82-.11,2.8-.17,6.57a21.57,21.57,0,0,1,1.27,7.33c0,1.68-.21,5.8-.49,10.59,1.86-3,4.37-5,7.76-5a8.89,8.89,0,0,1,3.49.73,8.76,8.76,0,0,1,6.29-2.78,7.44,7.44,0,0,1,1.15.1l.07-1.64.23-.6-.08-.15v-1l-.07-.15v-6l.15-1-.08-.15-.15-.67v-.52L203,153l-.15-.3.23-1.42-.15-1v-.75l-.15-.23.15-.45v-5l.07-.15v-1.2l-.07-.15v-3.68l.07-.15v-1.35l-.07-.07V135l.15-.3-.23-.38.08-.15v-1.8l.07-.23-.6-3.3-.38-1.28-.67-1.35-.15-.08-.75-1.35-.67-.6-.23-.45-.75-.53-.67-.75-1.5-1.13L193.47,120l-.3-.08-.23.08-2-.3H186.5l-.53.3-.08-.08-1.58.3-1.2.37-1.72.82-2.25,1.72-.45.38-1.12,1.35-1.65,3.15-.3,1.28-.3.82.07.6-.3,1.28v.82l.15.3-.07,1.35Zm8.55,13.57v-.07l.23.07Zm10.2,17.25-.15.07-.15-.22.3-.3.07.3Zm.53,1v-.15l.15.15Zm.45-.53-.23-.23-.07-.22-.08-.08.15-.07.23.15.08.3Zm.15-2.85.23-.08v.23H195Zm1.65-22,.08.15.08.23-.23-.07-.23-.23V141Zm-.3-.67.08-.15.15.08-.08.15Zm.75,3.15-.15-.08v-.15l.38-.15.07.15Zm.3.38V144h-.23l.08-.23Zm-.6,1.05-.15-.08.15-.23h.15v.23Zm.07,1.72-.3.15h-.08Zm-.38-3.15.15-.23.08.15Zm.38.82-.07-.07.3.07-.08.08Zm.15-2.63.08-.22.15.15Zm-.15-.82v-.15h.23l.07.15Zm.08-3.45h-.3l-.07-.3.07-.07.3.07.15.23Zm-.53,4.8-.23.08V142l.15.07Zm-.15.45.15.15.07.15-.3-.08Zm.22,5.1-.15.07.08-.15Zm-.22,7.12.22.08-.07.23-.3.15h-.23Zm-.45,1,.15.07v.15h-.15Zm-.15-7.35.08-.3.07.3Zm.53,9.22h.15l-.07.3L196,158l-.08-.15Zm.08-.23-.15-.23.07-.3.23.15.07.3-.07.08ZM196,147.19h-.15l-.23.08.08-.38-.3-.53.45.23.23.45Zm-.38,2.77.08.15-.3-.07v-.15Zm-.22,7.35.15-.22.15.15v.22Zm.3,2.55-.08.08-.22.08-.08-.3Zm-.23-6.45.08.3-.3-.07-.07-.3.07-.08Zm-.23,1.58-.07.23-.08-.15Zm-.07,3.9.15.15-.3.23h-.15l.15-.38Zm.23,4.88-.23-.08-.08-.15.3.08Zm-.08-1.58-.15.07.07-.37.23.07Zm.23.75v-.08l.07-.08.15.23Zm.15-.38v-.15l.15.07Zm.07-2.18.38-1.42h.15l.23.53.3.07.23-.15-.08.23-.82.67Zm1.05-5.47.15.08h-.45Zm-.23-5v-.15h.3l.07.22-.22.08Zm.23,6.82h-.23v-.15h.15Zm-.07,8.92-.15.07-.07-.15.23-.07Zm.15-.67-.23-.08-.08-.15.08-.08.45.08Zm-.3-2.25v-.15l.23.15-.07.07Zm.23-1.13-.15.08-.3-.15-.08-.23.67-.53.15.08Zm.23-9.15h-.15v-.15h.22Zm-.38-4-.15.45-.15-.15.07-.38.15-.22.53-.3.08.3-.08.07Zm.67,9.82-.15.07.08-.38.15.08Zm.15-4.12.08.15h-.15Zm-.07-.6h.15v.15Zm.15,2,.3-.07v.38l-.15.07h-.15Zm2.77-4.95v-.15l.15.08-.08.3h-.15Zm-.08-3.67.08-.15.07.07Zm0-.75.15.15v.15l-.38-.15.08-.15Zm-.15-1.43.23-.07.15.07-.15.08h-.15Zm.08,3.38.07.15v.15l-.15.15-.3-.07v-.15l.22-.22Zm-.38,3.45v-.15H200l.15.15-.15.07Zm.15,5.17-.15.15v-.15Zm-.08-8.85h-.15l.08-.23.07-.15.08.23Zm-.3-2v-.15l.23.08Zm-.23,5v-.6l-.75-.83-.23.23V150l-.15.08-.08-.3.15-.38.23-.08.3.3.23.08.45.6.15.75Zm.23,1.35v.23h-.3l-.15-.08.15-.15Zm-.53,6.3h-.3l-.38-.53.08-.3.07-.15.23-.07.07.22-.15.3Zm-1.27-2.4v-.15l.9.15.08.3-.53.22v-.15Zm.75-4.8v-.15l.23-.22h.15l.15.15v.23Zm-.15-6,.08-.45.22.45-.07.15Zm1.05-1.27-.23-.23v-.15l.45.15.07.15Zm-.23-.75-.15.08.08-.23.15.08Zm-.15,3.53-.08.38-.15.22h-.15l-.07-.15.07-.3.23-.15ZM199,135.19l.08-.15h.15v.15l-.15.08Zm-.22,7.42-.3.15-.08-.15.3-.3.15.15Zm-.08-1.58-.22.08-.15-.08v-.15l.15-.15.22.15Zm-.3,4.95v.15l-.08.22-.3-.07.15-.3.15-.07Zm-.23,2.7h.15l-.07.3-.38.08-.07-.3Zm-.53,12.45.08-.15.08.08Zm.15-3.52h-.15v-.23l.23.07Zm.22-.6h-.3v-.15l.38.08Zm.45,1.8.07.15v.15l-.07.07-.15-.07-.15-.45Zm.07,3.67-.15.08v-.15h-.08l.08-.08.38-.45.38-.08.07.53-.15.08h-.6Zm.6,1.13v-.3l.15.3Zm.15-4-.3-.15-.15.07-.07-.3.53.23Zm-.08-5-.3-.23.07-.15.6.08-.3.15Zm.3,5.47h.3l.15.15v.15l-.53-.15Zm.53,3.6-.15.08.08-.3.15.07Zm.45-3.82-.15.08h-.15l-.08-.15.15-.23h.23Zm-.08-2.4.08-.15.07.08Zm.08-9.3V148l.07.07Zm.3,7.12h-.15V155h.15l.08.15Zm.53-9.6-.15.23-.38.07-.3-.15v-.22Zm-.38-.75.08.15-.15.15-.23-.08.07-.22Zm-.3-7.2h-.15v-.3l.15.08Zm-.23-6.75.08.07-.15.08Zm-.22,3.6.15-.08.22.15v.15l-.3.07-.07-.15Zm0,8.77-.15.15-.15.07-.22-.15-.38-.75.15-.08.38.23.07.38.3.07Zm-.45-5.78.08-.15.07.08Zm.23,3.53-.15.07V141Zm-.53-4.95.3-.08.23.15v.15l-.38.08-.15-.15Zm0,5.25h.15l.15.08-.23.3-.15-.08Zm-.08.82-.15.08-.15-.15.15-.08h.15Zm-.53-9.82.15-.08.23.15v.23h-.3l-.08-.15Zm-.15,6.6.23.23-.08.15h-.15l-.07-.15Zm-.38-5.55-.22-.15H198l.15-.3.38-.07.07.3Zm-.15-8.62.23-.08.08.15v.15l-.23-.08Zm-.3-.75.3-.23h.15l.15.08-.08.3-.53.15Zm-.07,24.29-.3.08-.07-.23.07-.15v-.15l.3.08Zm-.23-4.35-.15.07.07-.15Zm-.3-13.35.15.22-.15.15h-.15l.08-.22Zm-.3-1.58.15.23-.15-.08Zm.15.53v.15l-.22-.08.07-.15Zm-.3-4,.08.08h-.15Zm-.23,8,.15.15-.23.08Zm-.07.53.23.08v.15l-.3-.08Zm-.15,1.72-.15.15-.45-.07.38-.6.15.15.08.23Zm-.3-2v-.23l.15.15Zm.15-10.42.07.15-.22.07-.67-.15Zm-.75,14.09.15-.07-.07.23h-.15Zm.15,4.73v.15l-.22-.23Zm-.3,1.27.3.08.08.23-.08.15-.38.15-.22-.53Zm-.53,4.2H195l.23.23h.15v.15l-.23.07-.3-.15Zm0,12.22.15.22-.23-.07Zm-.15,2.47h-.15l-.08-.15h.23Zm-.3-14.32.15.07-.08.15-.15-.15Zm-.3,16.27.3.07.07.3-.3-.08-.08-.15Zm-.22-7.27.07.08-.15.07Zm-.23-10,.08.08v.3h-.15l-.07-.15Zm-.3-3.75.07-.15.08.08Zm.15-22.57-.23.08-.07-.15ZM189.19,123v.23l-.23.08-.07-.23Zm-4,6,.15.08v.15h-.3Zm-.08,14.47v-5.17l.08-.15V137l-.08-.15v-1.2l-.07-.15.15-1.87-.15-1.2.38-1.65.45-.75.9-.83,1.65-.52h1.35l.6.15,1.42.75.45.53.38.82.3,1.43v7.12l.08.67-.15.45.08,1.35.08.15v1.05l-.08.15v4.05l.15.82v1.5l-.15.38.08,1.05.07.15-.07,1.35-.08.15v1.5l.08.15v1.35l-.08.15.15,2-.15.3.08,1-.15.45.15,1-.08.15v1.05l.23.53-.75,2.63-.53.82-.45.3-1.72.67-.82-.15h-1.2l-1.05-.53-.75-.9-.3-.6-.53-2.48V160l.15-.9-.15-.75v-.75l.07-.15v-7.87l-.15-.9.15-.6v-3.37l.08-.15v-.9Zm-.45,24.82h.15l-.07.08-.15.07Zm-1.43-28.87.15-.08.15.08v.22l-.3-.07Zm-3.3-3.15-.08-.23L180,136l.15.07.08.15Zm1.12,1.5-.07-.15.15-.08.15.08.07.15Zm1.87,1.43-.07-.15H183Zm-.23-2.1-.07-.15v-.15l.3.07.08.23Zm.23-10.42v.15l-.3-.08-.08-.15Zm-.45,9.07.3-.3v-.3l.15.15.15,1-.38-.08.15-.15h-.45Zm-.08,3.75.38.15.15-.07-.07.37-.45-.15Zm-.23-5.7-.15.23-.22-.15v-.15l.22.07Zm-.37-4.5.07.22-.22-.07Zm-.15,8.47h.15l-.08.15-.3-.07v-.23h.15Zm-.23-3V135l-.08.15-.22-.23v-.15Zm-.15-1.28.07.15-.37-.07Zm-.38.6H181v.15h-.08Zm-.15,3.3-.3-.07-.08-.15.15-.15.3.15Zm-.08-2.17-.07.15-.23-.15-.08-.52.3.08Zm-.75-2.4h.15l.07.15H180Zm0,.9.3.07.07.23-.53-.08-.07-.15Zm-.67-.67.22.07.08.3-.23-.07-.07-.15Zm.22,1.8v.45l-.45-.15-.08-.6.08-.15Zm-.82-4.2.08-.15.22.15-.07.37-.23-.22Zm-.45.6.22.15.15.3-.23.22h-.15Z"/><path class="cls-2" d="M60.68,134.67l-.23-.38.08-.15v-1.8l.07-.23-.6-3.3-.38-1.28L59,126.19l-.15-.08-.75-1.35-.67-.6-.23-.45-.75-.53-.67-.75-1.5-1.13L51.08,120l-.3-.08-.23.08-2-.3H44.11l-.53.3-.08-.08-1.58.3-1.2.37-1.72.82-2.25,1.72-.45.38-1.12,1.35-1.65,3.15-.3,1.28-.3.82.07.6-.3,1.28v.82l.15.3-.07,1.35-.08.15v.75l.08.15v.82l.07.15V138l-.07.15v.6l-.08.15v1.12l.08.15V142l.07.07-.15,1.72-.07.15v.67l.07.15v2.85l.08.15V154l.22.45-.3.82v1l.08.15-.15,2,.15,1v2l.07.15v1.2l.08.08v1.72l.15.9.38,1.27.07.6.3.3-.07.45.53.75.07.3.68,1.2.45.3,1.05,1.27.82.6.08.3.45.38,1,.45.75.67.6.08,1.13.53,2.85.6.75.15h.6l.15.08H47l2.7-.3,1.2-.15.75-.37.9-.15,2.7-1.5.3-.3.3-.15,2.25-2.4.38-.82.6-.75.08-.45L58.8,168l.75-.15.67-1.95.15-.75.07-1.72.23-.6-.08-.15v-1l-.07-.15v-6l.15-1-.08-.15-.15-.67v-.52l.15-.22-.15-.3.23-1.42-.15-1v-.75l-.15-.23.15-.45v-5l.07-.15v-1.2l-.07-.15v-3.68l.07-.15v-1.35l-.07-.07V135Zm-19.8,4.8.15-.08.15.08v.22l-.3-.07Zm0,6.82.23-.08.08.23-.23.15v-.15Zm0-2.18-.07.23h-.15l-.08-.15.08-.08Zm0,9.9-.15.07.08-.15Zm-.3-8.32.08.08-.15.07Zm-.38-1-.07-.15.38.07Zm.45-5.62-.08.15-.07-.15Zm-.3-2-.07-.15v-.15l.3.07.08.23Zm.23-10.42v.15l-.3-.08-.08-.15Zm-.45,9.07.3-.3v-.3l.15.15.15,1-.38-.08.15-.15h-.45Zm-.08,3.75.38.15.15-.07-.07.37-.45-.15Zm-.15,6.67.15.08h.23l-.15.22-.23-.15Zm0,10.72-.15-.08v-.15l.08-.08.3.08v.15Zm.15,4.35-.07.3-.15-.07.07-.15Zm-.22,5.17-.38-.08v-.15l.07-.07Zm-.23-12.52-.38-.3.23-.3h.15l.07.15-.15.3Zm-.15-5.7h-.23l.08-.53-.08-.15.38.3.07.23Zm.22,1.13.15-.08.07.15-.23.08Zm.3,4,.15-.15h.15l-.15.23Zm-.6-6h-.3l.45-1,.3.53.07.08Zm-3,7h-.3l.15-.23h.38v.15Zm.07,2v.08h-.23l.08-.15Zm-1.72-2.55v-.15l.3-.08.3.08-.08.15-.3.15Zm.15,2.17v.15l-.15.08-.07-.08-.08-.15Zm.15-5h.22v.22h.08l-.23.08Zm1-13.42-.07-.23.07-.15.23.15.08.3Zm.38,1.05.08.15h-.3l-.15-.45.15-.37.15.07Zm-.38,2v.07l-.15.08Zm.08,1.2.45.08.08.15-.53.3H36l-.15-.15V142Zm1.2,1.27-.08.3-.15.15H37l-.07-.15.3-.3Zm-.15-.75v-.15l.15-.08.08.15Zm-.53.52-.15-.15v-.15l.53.22Zm-.3.38-.08.07v.15l-.08-.3Zm-.53-3.82-.3.08-.22-.3.07-.22.23.07.23.23Zm-.23,4.88V144h.15l.08.3Zm.15.37-.07.23-.15.08-.15-.08.23-.23Zm-.45-6.6v-.23l.22.08-.07.15Zm-.15-.53v-.15l.15-.08.22.15Zm.07,8.25.08-.15.15.22Zm.6,3.9.07-.08.23.15V150l-.15.3-.67.53Zm.22,5,.08.15V155l-.23-.23Zm.45-9.15v-.3l.3.15.08.07Zm.3.08.3.3h-.45l-.08-.08Zm0,5.85h.23l-.08.22-.23-.07Zm0,.75.15-.15.15.38-.3-.08Zm.38,5,.07.15-.22.23-.08-.15.08-.15Zm.15.75-.08.15-.07-.23Zm-.23,2.92.15-.07.15.38-.23.07-.15-.15Zm.15-8.7.15-.3.15-.08-.3-.3.15-.07.22.15v.15l.45.3.07.38H38l.08-.23Zm.83-6.6-.15.07-.07-.15.07-.08.08-.15.15.08Zm.15.53.3-.15-.08.3-.15.07h-.15Zm-.6-4.58.15-.22.08.15v.15Zm.23,7h-.15v-.15Zm.23,2.62v.3l-.3-.15-.07-.3Zm-.53-14.84-.08-.23.15-.07.15.07.08.15Zm.3,16.19-.08.15h-.15l.08-.22Zm-.23,5.1.15.22h-.15l-.07-.15Zm.08-4.58.38.08-.15.3v.15Zm.07,2.18.15.07-.07.15-.08-.07Zm.23,5.17.38.38-.15.08-.3-.3Zm.3-10.42v-.15l.15-.07.23.15-.08.15Zm.23,1.72.15.08V152Zm.15,1.65v.3l-.15-.3Zm-.23,2.17.23.07.08.23-.08.08-.3-.3Zm.23-6.6.23-.22.15.07-.23.23Zm.08-3.6.07-.15.08.08Zm-.53-4.72v-.15l.3-.3.67-.23.08-.08v.75Zm.67-1.2v.15l-.3.08-.3-.15.08-.3Zm-.3-1.72.15-.08.15.08.07.15h-.3Zm1,1.35-.3.08-.08-.15.15-.23.38.07Zm.23,3.3-.15.07.08-.15Zm-.53,1.05h-.15l.15-.53.15.07Zm.07,2.25v.15h-.15v-.23Zm.45-11.77-.15.23-.22-.15v-.15l.22.07Zm-.38-4.5.07.22-.22-.07Zm-.15,8.47h.15l-.08.15-.3-.07v-.23h.15Zm-.23-3V135l-.08.15-.22-.23v-.15Zm-.15-1.28.07.15-.38-.07Zm-.38.6h.07v.15h-.07Zm-.15,3.3-.3-.07-.08-.15.15-.15.3.15Zm-.08-2.17-.07.15-.23-.15-.08-.52.3.08Zm-.75-2.4h.15l.07.15h-.22Zm0,.9.3.07.07.23-.52-.08-.08-.15Zm-.15,3.45-.08.15-.3-.23-.3-.07.15-.3.37.15Zm-.53-4.12.22.07.08.3-.23-.07-.07-.15Zm.22,1.8v.45l-.45-.15-.08-.6.08-.15Zm-.82-4.2.08-.15.22.15-.07.37-.23-.22Zm-.45.6.22.15.15.3L36,132h-.15Zm-.75,3.45.23-.15.07-.53.15-.15h.15l.15.15-.15.45-.3.15-.07.3.07.15v.9l.38.3,1.05-.23v-.45l.08-.08.15.08v.3l-.3.45-.67.53-.22.08v-.3l-.67-.38-.3-.67.3-.45v-.3Zm-.23,3.52.15.08-.08.15-.15-.07Zm0,.6.08.08-.15.07Zm-.15,2,.15-.07-.07.15h-.15Zm-.07,2.55.15-.07v-.15l.15.22-.08.15-.3-.07Zm-.23,1.05.3.08.15.15v.15l-.3-.08-.15-.15Zm-.82-8.1h.15l.07.15h-.22Zm-.15,7.5-.08-.15.45-.15-.07.15Zm.53,2.17h-.23v-.15l.15-.15.08.15Zm.07,1.72.08-.15.3.22-.08.15.38.53v.3l-.3-.08-.38-.53Zm.38,2.77h-.15l.23-.3Zm0-1.05-.15-.15h-.08l.08-.08.23.15Zm.53,8.85h-.23l-.15-.07.08-.15.38.07Zm.45,0h-.22l.07-.22h.15Zm-.07-6.07v-.15l-.15-.15.22-.37.23.15v.45l-.15.08Zm.38,1.8.15.15-.23.08ZM36,157l-.15-.3.45.07.15.23-.38.08Zm.3,6,.08-.3.15.3Zm.08-1.65v-.3l.22-.08.23.38Zm.3-7.65.3-.07-.15.15Zm.45,8.47-.07.07L37,162h.23l.07.23Zm.15-.45.08-.3h.45l.38.23-.07.15-.08.08Zm.67,11.4.53-.38h.15l.23.45Zm.75-3.3.23-.07.07.15Zm.23-17.47.07-.15.08-.07.15.07-.08.23-.15.07Zm.3,1.8.3.07.23.23v.38l-.23-.23-.45-.23Zm.08,3.37-.08.08v-.23Zm-.08,12.22h.3v.15l-.07.07Zm.53,3.22h-.15l-.08-.15.08-.08.15.08Zm.08-5,.15-.07v.3h-.15Zm.45,2.18L40,170v-.15l.37.08.08.15Zm-.08-19.87v-.15h.3l-.08.15ZM41,164.43l-.3-.08-.15-.15V164l.45.3Zm.3-8.17-.15.07h-.38v-.15L41,156h.38Zm0-8v-.07l.23.07Zm17.32-3.3.08.15-.15.15-.23-.08.07-.22Zm-.3-7.2h-.15v-.3l.15.08ZM58.05,131l.08.07-.15.08Zm-.23,3.6.15-.08.22.15v.15l-.3.07-.08-.15ZM57,151v-.6l-.75-.83-.23.23V150l-.15.08-.08-.3.15-.38.23-.08.3.3.23.08.45.6.15.75Zm.23,1.35v.23h-.3l-.15-.08.15-.15Zm-.53,6.3h-.3l-.38-.53.08-.3.07-.15.23-.07.07.22-.15.3Zm-1.28-2.4v-.15l.9.15.08.3-.53.22v-.15Zm1.43-12.82-.15.08.08-.23.15.08Zm.45.53.07.15-.3.08-.23-.23v-.15Zm-.6,3-.07.38-.15.22h-.15l-.07-.15.07-.3.23-.15Zm-.07-11.77.07-.15h.15v.15l-.15.08ZM56,145.46l.08-.45.22.45-.07.15Zm.38-2.85-.3.15-.08-.15.3-.3.15.15ZM56.33,141l-.22.08L56,141v-.15l.15-.15.22.15ZM56,146v.15l-.08.22-.3-.07.15-.3.15-.07Zm-.23,2.7H56l-.07.3-.38.08-.08-.3Zm.38,2.77v-.15l.23-.22h.15l.15.15v.23ZM57.23,146v-.15l.23.08Zm.23,1.72.07-.15.08.23-.08.15h-.15Zm0,9.07h.15l-.15.15Zm0-5.17v-.15h.15l.15.15-.15.07Zm0-3.07v-.15l.22-.22h.15l.08.15v.15l-.15.15Zm.22-2.18.08-.15h.15l.15.15v.15Zm.38.53-.15.08.08-.15ZM58,150.64v-.15l.15.08-.08.3H57.9Zm0-5.77h-.15l-.07-.08.23-.07.15.07Zm-.15-1.5-.15.15-.15.07-.22-.15-.38-.75.15-.08.38.23.07.38.3.07Zm-.45-5.78.08-.15.07.08Zm.23,3.53-.15.07V141Zm-.53-4.95.3-.08.23.15v.15l-.38.08-.15-.15Zm0,5.25h.15l.15.08-.23.3-.15-.08Zm-.08.82-.15.08-.15-.15.15-.08H57Zm-.53-9.82.15-.08.22.15v.23h-.3l-.08-.15Zm-.15,6.6.23.23-.08.15h-.15l-.07-.15ZM56,133.47l-.22-.15h-.15l.15-.3.38-.07.07.3Zm-.15-8.62.23-.08.08.15v.15l-.23-.08Zm-.3-.75.3-.23H56l.15.08-.08.3-.53.15Zm-.08,24.29-.3.08-.07-.23.07-.15v-.15l.3.08Zm-.22,5.17v.15l-.15-.15Zm0-9.52-.15.07.07-.15Zm-.3-13.35.15.22-.15.15h-.15l.08-.22Zm-.23,12.82-.15-.08v-.15l.38-.15.07.15Zm.3.38V144h-.23l.08-.23Zm-.53,11,.15.08h-.45Zm-.22-5v-.15h.3l.07.22-.22.08Zm.22,6.82h-.22v-.15h.15Zm0,2.85.23-.15-.08.23-.82.67-.38.07.38-1.42h.15l.23.53Zm-1.8-.3H52.5l.15-.38h.15L53,159ZM52.8,163v.23h-.15l-.08-.15Zm1-5.25h.15l-.07.3-.23-.08-.08-.15Zm-.07-.45.07-.3.23.15.07.3-.07.08h-.15Zm-.15-1.2H53.4v-.22l.15.07Zm-.3-7.57.08-.3.07.3Zm0-1.28.08-.38-.3-.53.45.23.23.45-.08.15h-.15Zm0,2.7.08.15L53,150v-.15Zm.23,12.52-.15.08v-.15Zm-.15-5-.3-.15.15-.22.15.15Zm-.23-4,.08.3-.3-.07-.07-.3.07-.08ZM52.88,155l-.07.23-.08-.15Zm0,6.9.23.07-.15.23-.15.07ZM53,160l-.07-.3.38.15-.08.08Zm.15,2.85.07-.08.15.23-.22-.07Zm.3,4.95.15.08-.08.15L53.4,168ZM54,155.21l-.3.15h-.23l.38-.45.22.08Zm-.23-12.3.08-.22.15.15.07.15Zm.3,4.88-.15.07.08-.15Zm.15-6.75.07.15.08.23-.23-.07-.23-.23V141Zm-.3-.67.08-.15.15.08-.08.15Zm.53.53v-.15h.23l.07.15Zm.38.75-.23.07.08-.22Zm-.3-4.2h-.3l-.08-.3.08-.07.3.07.15.23Zm-.23,6-.23.08.15-.23Zm-.3-1.2-.23.08V142l.15.07Zm.45,4.43-.3.15h-.08Zm-.07-1.72-.15-.08.15-.23h.15v.23Zm.07-.6-.07-.07.3.07-.08.08Zm.15-15.22.15.23-.15-.08Zm.15.53v.15l-.22-.08.07-.15Zm-.3-4,.08.08h-.15Zm-.22,8,.15.15-.23.08Zm-.08.53.23.08v.15l-.3-.08ZM54,135.94l-.15.15L53.4,136l.38-.6.15.15.08.23Zm-.3-2v-.23l.15.15Zm.15-10.42.07.15-.22.07-.68-.15Zm-.75,14.09.15-.07-.07.23H53Zm.15,4.73v.15l-.23-.23Zm-.3,1.27.3.08.08.23-.08.15-.38.15-.22-.53Zm-.53,4.2h.15l.23.23H53v.15l-.23.07-.3-.15Zm0,12.22.15.22-.23-.07ZM52,166.46v-.15l.15.15Zm.07,1-.15.08.08-.15Zm0-2,.15-.07.23.15.08.3-.08.15-.23-.23-.07-.22Zm.23-2.92h-.15l-.08-.15h.23ZM52,148.16l.15.07-.08.15-.15-.15Zm-.3,16.27.3.07.07.3-.3-.08-.08-.15Zm.23,4.42-.15.08v-.23Zm-.45-11.7.07.08-.15.07ZM46.81,123v.23l-.23.08-.07-.23Zm-4,6,.15.08v.15h-.3Zm-.45,39.37-.15.07.07-.15h.15Zm1,6.52-.15-.15v-.15l.22.23Zm.3-1.72h-.15v-.15h.15Zm1.13.3.07-.3.23.15-.08.15Zm.53.9h-.15l-.07-.15h.23Zm0-1.58-.15.07H45v-.22l.15-.15.23.07Zm1.42-3.53-.22-.07v-.15l.22.07Zm.45,5.63H47v-.23l.22.07Zm.15-2.4h-.08l.08-.08Zm.75,1.42.08-.15h.15l.15.23.08.38Zm.45-3.22.07.15-.22.08-.23-.23v-.15Zm-.15-2,.15-.08.22.15V169l-.22-.07-.08-.15Zm.3,3.45-.08-.3h.3l-.08.23Zm.23,2.77.07-.15.08.08Zm.3-6.22h-.15l-.08-.23h.38Zm1.2,4.65-.15.07-.15-.07-.08-.15.45-.08Zm-.53-2.55v-.15l.23-.08v.3ZM50,165l-.53.82-.45.3-1.72.67-.82-.15h-1.2l-1.05-.53-.75-.9-.3-.6-.53-2.48V160l.15-.9-.15-.75v-.75l.07-.15v-7.87l-.15-.9.15-.6v-3.37l.08-.15v-.9l-.08-.15v-5.17l.08-.15V137l-.08-.15v-1.2l-.07-.15.15-1.87-.15-1.2.38-1.65.45-.75.9-.83,1.65-.52H47.4l.6.15,1.43.75.45.53.38.82.3,1.43v7.12l.07.67-.15.45.08,1.35.07.15v1.05l-.07.15v4.05l.15.82v1.5l-.15.38.07,1.05.08.15-.08,1.35-.07.15v1.5l.07.15v1.35l-.07.15.15,2-.15.3.07,1-.15.45.15,1-.07.15v1.05l.23.53Zm.82-44-.07-.15.3.08ZM51,143.29l.08.08-.15.07Zm.23,3.9.08.08v.3h-.15l-.07-.15ZM51.45,165l.07.3-.07.15-.15.07-.15-.22Zm.07,7-.07.08-.08-.3h.3Zm.53-.3-.15-.08-.6-.15.82-.07.07.15Zm.82-3.15-.37.3h-.3l.15-.3.38-.22.15.07Zm.15-4.87-.22-.08-.08-.15.3.08Zm.75,4.72h-.23l-.45-.22.67.15Zm0-1.27-.07-.15.37.08-.15.15Zm.3,3.82v-.22l.15.07Zm.3-5.4-.15.07-.08-.15.23-.07Zm.15-.67-.23-.08-.07-.15.07-.08.45.08Zm-.3-2.25v-.15l.22.15-.07.07Zm.22-1.13-.15.08-.3-.15-.08-.23.67-.53.15.08Zm.23-9.15h-.15v-.15h.22Zm-.38-4-.15.45-.15-.15.07-.38.15-.22.52-.3.08.3-.08.07Zm.67,9.82-.15.07.08-.38.15.08Zm.15-4.12.08.15h-.15Zm.08,1.8v-.38l.3-.07v.38l-.15.07Zm.07,5.17.08-.15.07.08Zm.15-3.52h-.15v-.23l.23.07Zm.23-.6h-.3v-.15l.38.08Zm.15,1.65.3.15.07.15v.15l-.07.07-.15-.07Zm.38,3.82-.15.08v-.15H56l.08-.08.38-.45.38-.08.07.53-.15.08h-.6Zm.6,1.13v-.3l.15.3Zm.15-4-.3-.15-.15.07-.07-.3.53.23Zm-.08-5-.3-.23.08-.15.6.08-.3.15Zm.3,5.47h.3l.15.15v.15l-.53-.15Zm.38,8.85h-.15l-.07-.23.22-.08Zm.15-5.25-.15.08.08-.3.15.07Zm.45-3.82-.15.08h-.15l-.07-.15.15-.23h.23Zm-.08-2.4.08-.15.07.08Zm.08-9.3V148l.07.07Zm.45,20.62h-.15l-.08-.15.08-.15.15.08Zm-.3-13.5V155h.15l.08.15-.08.15Zm.53-9.37-.38.07-.3-.15v-.22l.82.07Zm.75,20.69-.3-.07v-.08h.3Z"/><path class="cls-2" d="M140.35,126.72l.15-.9v-2.1l-.07-.15v-1.95l-.3-.67-1.65-.45-.67.15h-1.2l-.15-.15h-1.28l-.15.08h-2.25l-.6.15-.38.23-.3.52-.15,1.58.22.6-.07,1.5-.08.08v2.7l.08.15v.75l-.15.3.15,1.05v.9l-.08.15v2.85l.08.15v3.68l-.08.3.15.3-.22,1.28.07.15v2.4l-.07.07v2.25l.15.67-.15.6.07,1.2-.22.45h-.15l-1.13-2.47-.15-.75-.38-.75.08-.22-.38-.53-.75-2.48-.45-1.05-.15.08-.08-.08-.07-1.05-.6-1.5-.38-1.35-1.05-2.63-.6-.37-.15-.3.38-.22-.38-1.43-1.13-3.15-.22-.53-.15-.82-.75-1.65-.9-2.7-.15-.08-.07.23h-.15l.08-.45-.15-.45-1.05-.3-1.43.07-.15-.07H117l-.15.07h-1.35l-.45-.15-.67.15-.38-.15h-.45l-.75.38-.38.38-.07,1.05.07.15v.75l-.07.15v1.72l.07.15v2.1l-.15.15v1.2l.08.15v1.27l-.08.15v.9l.08.15v2.25l.07.23-.22.82v1.35l.22,1.5v1.2l-.07.08.07,1.43-.15,1.35.23.75-.23.53.15.3-.22,1.2v.6l.07.15v3.22l.23,1.35-.3.9.22,1.87-.07.15v.6l-.08.15v.6l.08.15v.9l-.08.15v4.35l.08.08v1.05l.07.15v2.25l-.22.9.15.75v1.2l-.08.15v3.15l.08.15V172l-.08.15v1.58l.08.22.75.75.38.15,1.35.15.45-.15.22.15.45-.07.23-.15h.3l.23.23.45-.07h2.47l.9-.15.67-.3.23-1.35V169l.08-.15v-4.65l-.08-.15v-7.42l.08-.15-.08-1.35-.08-.15.15-1.2-.38-.23.22-.38.15-.53v-1.35l-.08-.15v-3.07l-.23-.3.08-.3.23-.23.15-.6.3.07,1.27,3.15.3.82.07-.15.23.07-.23.15-.07.23.6,1.28.08.6.75,1.8.08.37.53.3.15.22h-.38l.9,2.63.38,1.28.67,1.58v.37l1,2.4.82,2.1.38,1.43.9,2.25.45,1,.6,2,.53,1.12.3-.08.07.08-.22.53.82.67.3.08h3.68l.6-.08.3.15,1.27-.23.3.08.75-.23.38-.45.15-.75-.08-1.2-.07-.15.15-1.42v-1.35l-.08-.15.08-1.35-.15-.3v-.75l.07-.15v-1.5l.08-.08v-.75l-.15-.3.15-1.35-.08-1.35-.07-.15v-1.05l.07-.15v-5.1l-.07-.15v-.75l-.08-.15V152l.08-.15v-2.4l.15-1.35-.08-.15V147l-.3-.6.3-.23-.15-.67v-.82l.08-.15v-.75l.07-.15v-7.42l-.07-.15v-.82l-.08-.15.08-1.8.07-.15-.07-1.42-.08-.15.08-1.65.07-.07.08-.9-.08-.15.08-1.35Zm-18.44,3.75.23.15v.15l-.6.08-.15-.08.08-.3Zm-.23,2.17-.07.08v-.15Zm-1.8,1.43-.23-.15-.23-.45-.15-.07-.15.15-.07.67-.15.3-.22-.22.07-.67v-.45h1.13l.45.23.23-.08.38.38-.38.45-.38-.3Zm.22,2.32H120v-.22Zm-.75,1.65v-.45l.07-.07v-.15l.6.6Zm.67.38-.3.22-.15-.07v-.15l.38-.08Zm-.82,2-.15-.53.07-.15.23.22v.38Zm.15,1.58h-.15v-.08l.07-.15ZM117,152.81l-.22-.23h-.15l.07-.38.38.08.23.45Zm.3,1.27-.15.08V154Zm-.53-4.95.07-.15.23.23v.15l-.08.07h-.15Zm.07-2.55-.22.15h-.15l-.15-.15v-.15l.45-.3.3-.08-.23-.67.3-.08.15-.22.15.22v.45Zm-1-4-.15-.08v-.15l.3-.23.15.38Zm.3,9.15-.15.23-.08-.08.08-.07Zm-.07-10.2-.15-.3.23.15v.22Zm0-4.42v-.15l.22-.07.08.3-.08.15v.08Zm-1.05-1.88.07-.3.3-.07.23.15.08.15-.3.67-.07.45.07.3h-.15l-.22-.38.22-.67Zm0-1.72.22-.07v.15l-.15.08Zm.07,4.43h.15l-.07.3h-.15Zm.15.67.3-.15h.22l-.07.37-.45.08-.07-.08Zm.45-4.05h-.15l.37-.67v-.3l.38.45-.07.15-.3.07Zm-.08-1.2.23-.07.07.22Zm1.8-2.62,1,.07-.67.45-.3-.08-.3.15-.15-.45.3.07.07-.07Zm-.08-.6.15-.07.23.22-.08.3-.15-.15Zm.53,12.52-.23-.07.08-.15.3.3v.15Zm.08,2.25-.23.08.07-.3.08.08Zm-.15-3.22v-.15H118v.15Zm0-7.27-.22-.38v-.22l.53.38v.15Zm.23,4.58v.22l-.15.08-.08.07-.15-.07.08-.15Zm-1.27-4.2h-.15l-.08-.15.15-.23.82.08-.3.75Zm.07,1.28v.15h-.15l-.15-.15.08-.15Zm.53-.15-.07.08-.15.08.08-.23Zm-.23.6.23-.23.15-.07.08,1.05-.15-.6-.15.08-.15-.08Zm-.15-6.37-.22.08-.15-.08.15-.3H117l.07.15Zm-.3,2.18.08.07-.08.23h.45l-.6.75-.45-.45Zm-.53,6,.3.15.38-.3.08-.6-.15-.3.3.07.3.38v.6l-.15.23-.3.15h-.53l-.23-.22Zm1.2,1.43-.07.08v-.23Zm-.15,2.25-.45.15-.38-.22v-.3l.23.08.22-.23v-.15l.3.15.08.15Zm.15,1.87-.07.23-.15.07-.07-.45Zm-.38-4.35-.22.15h-.3v-.38l-.07-.08.6-.3-.07.3Zm-.22.6.15.08v.15l-.45.07-.15-.07v-.15Zm0,.9-.23-.15v-.15h.15Zm.3-.82V140l.07-.15.15.38Zm.15.75v-.15l.38-.3h.15l.23.22v.15l-.53.07Zm.45,15h.15l.23.38-.07.07-.3-.3Zm.45,10.87v.15l-.23-.07Zm-.23-11.32-.15.08.15-.6v-.3h.15l.08.45Zm.08-2.1.07-.15.15.08-.07.08Zm.15-.83v-.3l.3.08.08.15-.08.15Zm0-6.52-.23-.07v-.08l.3-.15Zm-.15-1.57.07-.45.3-.22h.15l-.23.82Zm.37-8.77h-.15l.15-.23h.23Zm.08-2.85-.08-.3.08-.15.23.15v.45Zm.23,4.65h.07l.15.08-.22.07Zm.07-.37-.07-.23.15-.08.23.23Zm.23-1.2.08.15-.23.15v-.3Zm-.15-.75v-.23l.15-.07.15.15-.07.07Zm1.12-6.3.08-.08.07.15-.22.53-.15-.07Zm-.22-.45.07-.07.15-.08v.3h-.15Zm.9,3.6-.15.08-.07.07-.53.08-.08-.38.53-.23h.45l.15-.22h.15Zm.45.75-.15.23h-.23l.07-.23Zm-1.13-3v-.15l.15-.15.08.15-.08.15Zm-.07,1.35v.15l-.15.15h-.15v-.15l.15-.15Zm-.15,1.58h.15l.15.08-.23.15-.45-.08v-.15l-.3-.45Zm.75,2,.45-.3h.15v.15l-.23.15.75.53-.08.07-.6-.07-.53-.23Zm.82-2.48-.07.08-.08-.15.3-.08v.15Zm.15,1.72-.15.08.08-.15Zm-.15-5.4.15.15h-.15Zm-.67.75.15-.22h.15l-.08.6.3.75v.45l.23.23-.67-.08.15.23-.67.23.07-.3.6-.37.08-.3-.3-.07-.3-.38.15-.23.23-.07Zm-.45-2.25.15.07v.15l-.15.08-.15-.15Zm-.53-.38h.3l-.07.3-.23-.15Zm-.08-4.5v.08h-.15l-.07-.15Zm0,5.4.15-.08h.37l-.07.3-.3.15h-.23l-.3-.15-.08-.3Zm-.37,2.62.15.08-.53.75.3-.07.38.07-.08.15L118,132.12l.6-.82v-.23l-.15-.15.15-.45Zm-.67-2.77.15.08v.15l-.15.08-.15-.08.08-.07ZM118.3,122l.07.08-.15.08Zm-.23,6.52.3.3-.07.45-.38.38-.45-.08.07-.22.38-.23-.3-.38-.38.23-.45-.23.22-.3.3-.08.6.08Zm-.75-4.65.3.15-.15.07-.15-.07Zm-.38,3.75.3-.08.15-.07-.23.67-.15.07-.3-.23Zm-.45-.6.08-.07.08.3-.08.15-.15-.08Zm0,3.45.08.08.08.15h-.3Zm-.37-.08-.23.08v-.23l.07.08Zm-.23-2.17-.15.15h-.15v-.22l.3-.08Zm-.3-1.35.15.23v.22l-.3-.07-.15-.3Zm-.45,1.05.15-.15h.15l-.07.3h-.23Zm-.07,3.9.15.08.38,1.27-.38-.07L115,132Zm.07,19.72H115l.15-.3.08.15Zm.15,6.22v.15l-.15.07H115v-.15Zm-.53-18.67-.15-.08.08-.23.3-.07Zm0-1.35V138l-.22-.07v-.3Zm-.15-2.92v-.38l.23.23-.08.15Zm.15,3.3-.15.08.08-.15Zm-.3-10.72.15-.08.15.23-.15.08-.15-.08Zm.08,2.92.22.07-.07.15.15.3-.08.15-.3-.23-.07-.38Zm-1.2,13.12h-.23l-.15-.15v-.23l.3.23ZM113,125.52l.07.07-.15.08Zm0,16.27.07.08v.3h-.15l-.07-.15Zm-.38,4.57.23.15h-.23Zm.38,16-.23-.15.08-.22.22.22Zm.3-17.85.15.15v.3l-.22-.07-.08-.23Zm-.07,26.24v-.15l.15.15Zm.3-.6h-.15l-.08-.23.3.08Zm.53-40,.07.07-.15.08Zm.45,1.58-.07.37-.15-.07-.15-.3Zm-.22,8.32v-.3l.22.15.3.67V141h-.22Zm.52,3h-.15v-.22l.23.07Zm.45,19.5-.23-.08.38-.23.07.08Zm.38-2.85-.3-.15.08-.15h.23Zm-.3-2.77.08-.15.07.08Zm.15-6.45-.07-.07-.08-.15.3.08Zm.08-6.45h-.15v-.15l.23-.08Zm-.23-2.1v-.3l.23.07-.08.23Zm-.07-1.12-.15-.3.37-.15.08-.22-.3-.08v-.3l.22-.23.45-.07.23.15v.15l-.3.07v.23l.15.3v.3l-.3.15Zm.53,6.45.07-.15.15.07-.07.08Zm.22,5.55.08-.15.08.08Zm.38,8.85h-.22v-.3l.22.15Zm0-8.17-.07-.15h.22l.08.15Zm.23-2-.15.08h-.23l.15-.83-.15-.45.23.15.23.45Zm.23,4-.15-.23h.45l.23.23.07.23-.07-.15Zm.37,6.6-.07-.3.3-.07.15.6-.07.15Zm.38,8.1.38-.23-.08.3h-.15Zm.6,1.65-.08.15h-.15l-.08-.15.08-.15h.23Zm.15-.37-.23.07-.15-.3.3-.08.23.15Zm.15-17.1-.15.08-.15-.23.15-.53.23.15.07.3Zm-.08-7.87-.07-.22.53-.08v.45l.3.3-.23.15-.22-.15Zm.53-1.65v-.3h.15l.07.15v.15Zm-.15,3.3.3-.3.15.08-.15.3-.15.08h-.15Zm.75.6-.23.15h-.22l-.15-.45.23-.08Zm-.15-5.32.22.08v.15l-.15-.08Zm-.23,15.45h-.23v-.3l.23.15Zm-.07-3.52h-.15l.15-.3.07.15Zm.07-2.18-.15-.07.23-.08.07.15Zm.15-.53-.07.08h-.15l-.08-.3.08-.15h.22Zm0-3.45.23.07.07.3-.22-.07-.08-.15Zm.23,1.42-.08-.07-.07-.15h.38l.07.15Zm.15.3.15.07v.3l-.23-.22Zm.08,9.22.15.07v.15h-.15l-.08-.15Zm0,8.4v-.23l.15.15Zm.3-5-.15-.15.07-.15.15.15Zm0-8.47v-.22l.07.07.08.15ZM120,142.61l.08.15-.45.23-.15.3-.22-.23-.53-.15.3-.3h.15l.23.23h.15l.07-.3.3-.3.07-.3h.15l.08.15Zm.3-2.77h-.15l-.07-.3.22.08Zm-.15-.67.75-.67V138l.23.3.07.3-.15.6-.23.23-.22.07Zm.75,8.47h-.23l.08-.3.23.07Zm.08,4.35-.15.15-.15-.08.08-.15.15-.08Zm-.45-6.67.08-.07.15.3Zm.23,3.23.07.15-.07.07h-.23v-.22Zm-.08,4h.15l-.07.23-.23-.15v-.15Zm.08,1.5.07-.15.23.15v.15h-.3Zm-.23,3.07.23.23-.23-.08Zm.53,7.57-.15.15h-.15l-.08-.15.38-.15Zm.08-9-.38-.23.15-.15.23.22Zm-.08-3.23.08-.15.07.08Zm.75-12.45h-.45l-.07.15L121,140l.15-.22.23-.08.3.08.15.15Zm.15-2.1-.15-.07-.67-.52v.15l-.3-.08-.07-.15-.23.23v-.3l.38-.15-.08-.38.75-.23.3.08-.07.22-.6.08-.07.15.75.45.23.3Zm.15-.82.08-.15.07.08Zm-.08-1h-.15l-.53-.15v-.23l.15-.15.15.22.3-.3.23-.07.07.45Zm-.22-1.35.07-.23.08.08-.08.37Zm.6-.9.08.23-.23-.08-.15-.23-.3-.15.15-.23.45-.07.15.07-.3.15-.07.07Zm-.22-1.8L122,132v-.23h.38l.08-.07.07.15Zm7.35,22.49-.08.15-.3-.07v-.15l.07-.15Zm-.38-5.17.07-.07v.3h-.07Zm-1.13-4-.15.08.08-.15Zm0,5.85-.3-.07v-.15l.23.07Zm-.15-9.3.08.15h-.15Zm-.53-.53.15.07-.15.08Zm-1,2.7h.15l-.22.08Zm-.15.67.15.15-.15-.07Zm-.23-1.12.15.07L126,144Zm-.07-1.58v.15h-.15l-.08-.15.08-.08Zm-.3-.67.08.07h-.08Zm-.22-1.72-.08.22h-.15l-.08-.15.15-.07Zm.15,1.12-.45.15-.15-.07.08-.3.38-.07Zm-.45-2-.07.08h-.6l.08.22.23.23-.23.23h-.15l-.23-.23v-.53l.23-.23h.53Zm-1.27,3.07-.15-.3.15-.08h.67l-.23.38-.3.08Zm.15,2-.23.23h-.15V144l.23-.07Zm-.45-8.47.22.22v.15l-.15.08-.3-.08-.23-.22v-.15l.15-.08Zm-.15-1.05v-.15l.22.15-.07.23Zm.22-1.13.23-.07.15.07-.15.23-.15-.08Zm.38,4.73v.15l-.15.07-.3-.15.22-.22Zm-.07-1.13.22-.07V137Zm.15,3.45-.3-.07.08-.23.15.15Zm-.38-1.5.07.15v.15l-.15.08-.22-.15-.15-.45Zm-.08.6h.15l.08.07-.3.08Zm.6,3.3.53-.07.07.15-.38.22h-.3Zm.45-2.25v.15l-.38-.07.23-.52h.3Zm.15-3.3.08.15-.38.07-.08-.37Zm-.45.37.07.15-.22.07Zm-.45-1.12-.15-.08.23-.22h.15Zm-1-4,.3-.15.38.08h.15l.23.07v.15H122.8Zm.38,7.65V140l.23.23-.08.23-.3.07-.15-.07Zm-.23,2.47.08-.15.07.08Zm.38-1.58h.15l-.15.45-.15.07Zm.08,4.58-.08-.08.08-.15h.22v.15h-.15Zm.3,4.65-.08-.15.38-.07Zm.67.38-.15.08h-.15l.38-.38Zm-.15-4.2-.45-.23-.3-.38v-.07l.45.07.53.6Zm.67,2.92-.08.07-.15-.07.15-.23.15.08Zm.23-.67-.23-.08-.08-.15.3.08Zm-.15-4.73-.15-.07.08-.23h.23Zm.38-1.27-.15-.08v-.15h.38l.08.15Zm.15,8.4-.07-.15.3-.08.38.38Zm1.2,1.87-.15-.15.15-.23Zm-.15-2,.08-.15.07.08Zm.23,1.5h-.08l.15-.15Zm.08-3.3h-.83l.08-.3.38-.15h.6l-.15-.3.08-.15.37.23.08.37-.3.23Zm.37.67v-.15l.3.07.22.45-.07.15-.3.15Zm.53,6.6h-.15l.3-.38.08.15Zm-.22-.53.15-.22.07.15Zm.45-2.92-.23-.07-.22-.23v-.15l.3.07.15.23Zm.23-6.75.07-.15.08.07Zm.15-4.5-.3.08-.08-.15.23-.15.15.08Zm.07,10.8v-.23l.15.08Zm.23,4.57V157l.23.08Zm.15-4.8-.07-.15.15-.15.15.15v.15Zm.23,11.17.23-.07.22.3v.15l-.38-.15Zm.23,1.8.15-.15.07.08Zm.15-.83-.15-.22.07-.23.15-.08.08.38Zm.15-2.17-.08.15-.22-.23.3-.07Zm0-5.1-.15.07.07-.22h.15Zm.15-2.63h.15l.08.15h-.23Zm.3,3.3h-.15l-.08-.15.15-.23h.22Zm9.45-26.17.08-.15.07.3h-.15Zm-.15,5.32h.23l.07.45h-.3l-.08-.3Zm-.23-1.13.08.15-.15.23-.45.15-.3-.15-.07-.15.37.07L139,136Zm-.22,7.27v.15h-.15l-.07-.23Zm-1.35,16.64.08-.3.15.23Zm.23,6.75-.07.3-.08-.22Zm-4,.82v-.15l.07-.07h.6l-.08.3Zm.45.75v.15H134l-.08-.15.08-.08Zm-1.8-5.1h.3l.3.15v.15h-.38l-.22-.15Zm-.08-1.87-.15-.08.15-.15h.15Zm.67-25.42-.23.07.08-.22Zm-.15-3.82.15-.22.15.15-.07.15-.15-.08Zm.15,9.22.3.08.23.38v.45l-.3-.07-.3.15h-.23l-.15-.15h.3l.15-.23Zm1.58-.75.38.38V141l-.3-.08-.3-.3-.22.15-.23-.08-.08-.15Zm-.08-1.5v-.15l.3.08V139Zm3.9,2.77-.15-.07.15-.08.07.08h.15Zm.22,4.12-.3-.07-.07-.23.07-.15v-.15l.23.15Zm-.3-1.05v.15h-.23l-.3-.15-.07-.3.15-.07.22.07Zm-.15,3.38.08-.45.22.15.08.23-.08.23-.15.3-.15-.07v-.3l-.23.15-.15.3-.3-.3v-.15Zm-.15,3.3-.08.07-.22-.15v-.15l.22.07v.08Zm-.9-2.1-.08-.15V149l.23.23.08.22Zm.15,13.94-.07.23H137l-.07-.15v-.15Zm-.07-13.2-.15.08V150ZM137,147l.15-.3.07.15-.07.15Zm.15-2.4v-.15l.3.08.07.3Zm.45,2.85-.15-.08.15-.07Zm-.38-3.75-.6-.23.3-.67.07-.08.38.45.15.53Zm-.3,14.4-.15-.15.07-.15.15.15Zm.07.75-.15.08.08-.15Zm-.52-7.35v-.15l.3.23.15.3-.08.45-.15-.15.08-.15ZM136,150h-.15l-.23-.3.38-.67.53.22.07.15-.15-.07-.3.07-.23.45Zm-1.35,15.45-.6.3-.15-.23v-.22l.53-.15.3.15Zm.08.9-.6.23-.08-.3.08-.15Zm-.08-2.1-.22.15-.38.38-.08-.15.23-.67h.38l.38.23-.23.15Zm-.07-16.5.15-.08.08.08-.23.38h-.15Zm-.08-6.45.23-.23.08.3-.08.15h-.15Zm.45,9-.15.15v-.15Zm-.15,1.58.07.15-.3.08-.08-.23Zm-.23,3.67v.23l-.08.08-.3-.23.08-.23h.15Zm-.23-3V153l-.07-.45-.38-.22.23-.15.15.07-.08.08Zm-.22.75-.15.15v-.23Zm.07,3.67v.23l-.3-.23Zm.23,1.13v.22h-.15l-.15-.3Zm-.15-6.52-.08-.08v-.15l.23-.08Zm0-.6-.38.08-.15-.08.07-.3.23-.23h.15l.08.3Zm0,8.17h.6l-.53.38-.38.08-.15-.08-.07-.15Zm.53-2.32v-.15l.22-.08-.07.23Zm-.75,4.2.3-.15.08-.15.07.08-.22.23v.15h.37l-.22.22-.45-.15Zm.82,2.17v-.15l.23.07v.15Zm.08-2.77-.08-.23.23.08v.15Zm.07-6.6-.38-.15v-.15l.23-.07.23.15Zm0-4.43v-.15l.3.08v.15l-.15.07Zm-.07-1.2.3.08.23.3v.15h-.23Zm.15,1.72.38.08.07.15-.15.07-.3-.15Zm.3,3.38.15-.15h.15l-.07.45-.23.07Zm.23-7.5h-.15l.07-.3.23-.08Zm.15,2.48-.08.07-.07-.15Zm0-4.2L136,144l-.08.08Zm.08,3.53.15.15h-.15Zm.22,1.05v-.23h.15l.08.23Zm.23-.9h.15l.08.15-.15.08Zm.6,3.07v-.3l.15.15v.15Zm-.07-1.05.07-.07v.07Zm0-5.47.07.08-.22.07Zm-.08.6.08.07-.15.08Zm0,2.4-.07.15h-.3v-.15l.23-.08Zm-.53-2.18-.22.08-.15-.15.15-.3.3-.07.15.07Zm-.15-1.65-.53.45h-.15l-.15-.15v-.23l.23-.15.6-.07Zm-.53,4.12-.22.38-.15-.08.08-.15Zm-.38-1.87H135l-.15-.15v.45l-.23-.15.08-.3.15-.15h.3l.08.15Zm-.22-1.87-.3-.3.38-.53h.15Zm-.75-1.8H134l-.08-.3.08-.15.15.15Zm.08.15v.38l-.15-.07v-.3ZM134.2,148l.15.07v.23h-.15l-.07-.15Zm-.23,1.27v.3l.53-.07-.22.23-.38-.08-.3-.23-.15-.45.15-.15.22.15Zm-1,2.7-.23-.07.08-.3.15-.08.3.15.23-.15v-.15l.08.15-.23.38Zm.23,4.88V157l-.15-.07-.08-.15Zm-.08-6h.08l-.23.08v-.15Zm-.15-4.35v-.22l.23.22Zm.82.67-.22.08-.08-.3.3.07Zm-.3-3V144l.23.07Zm.08-1.35-.08-.15h.15l.08.15Zm-.75,16.42v.3l-.23.15-.15-.07v-.15l.23-.15Zm0,4.42.23.23h-.23Zm.23-1.58.15-.22.15-.08v.3Zm.07,9.3h-.22v-.15Zm.08-9.07h.23l-.08.23h-.15Zm.45.9.23.15.07.23-.3.07-.22-.15Zm.75,5.7.07-.15.15.08-.15.23-.15-.08Zm.15,2.4.3.15v.15h-.3Zm.15-2.77.23.07-.08.15Zm0-3.75.08-.15.22.15.23.37h-.15Zm.38-6,.07-.3.3-.07-.08.3h-.15Zm.45,2.77.15.08-.07.23-.15-.15Zm0-3.75-.15-.07v-.23l.23-.38.23.08.07.67-.15.07Zm.23,2.33.15-.45.15-.15h.15v.67l-.22.08Zm.23,2.92-.08.3-.15-.08.08-.3Zm.07-4.27h-.3l.45-.6Zm.08-2.77.07-.15.6.45.07.45-.37-.37h-.3Zm.67,4.12.07-.15.23.53-.08.67-.22.07-.08-.22Zm.53,3.75.07.45-.07.15v.08l-.15-.08-.23-.67Zm0-11.85v-.15l.15-.08.23.08.22.23v.15h-.38Zm.22,18.14h.15v.15l-.08.15-.15-.15Zm.15-13.27.07-.15.3-.15-.15.45h-.15Zm.22-6.83V150h.23l.15.38-.07.08Zm.38,14h.15l-.22.15Zm.08-13.65.15-.3.15.07-.08.38Zm.22-28.19h.15l-.15.3-.07-.15Zm0,7.72.15.22-.07.15-.75-.15Zm-1.05-9.15.15.15-.15.08Zm.15,14,.22.45-.3.07-.08-.23Zm-.15,4.42v.23l-.22-.53Zm-.07,2.63v.15l-.3.08-.08-.08L137,142l.23-.15Zm-.67-7,.07-.15.23.08-.23.3-.15-.15Zm-.38,1.13.15-.15.08.23-.23.23h-.15Zm0,1.65.38-.08.15.08v.15l-.67.3Zm.3,3.75-.07.45-.38.22v-.38l-.15-.3.07-.07.08-.15Zm-.67-1.58.08-.15.07.08Zm-.15-2.47-.3-.08-.08-.15h.6Zm-.07,3.75v.15h-.15l-.15-.23v-.15Zm-.15-4.27-.15-.08.15-.22.08.15Zm-.22-3,.07-.07.15.3-.22-.08Zm.07,1.28v.07h-.07Zm-.22,7.27.67.08.07.08.23-.15.45.08.08.23-.15.07-1.28-.07-.3-.15Zm-.15-2.25-.15.15-.07-.08-.08-.15Zm-.45-2.25.08.15-.3.07-.15-.07-.15-.3Zm-.82-1.28.07-.07.15.07-.08.23-.15-.08Zm-.23,1.87.15.15-.07.15-.15-.15Zm-.22-3.07-.15-.07V135l.23.3Zm-.45-12.6h.15l.15.07.15.45-.23-.15-.6.15Zm-.53,17.92.38.08-.08.15-.3-.08Zm.15,6.52.08.38-.23.3-.23-.23.15-.45Zm-.6-4.42h.22l-.07.3H132l.07-.15Zm.15,6.07h.45l.08.08-.6.23-.07-.08Zm-.3,11.47-.23.23h-.15l-.08-.15.15-.15Zm-.3,2.85h-.37l-.15.07-.23-.45.38.08.22.22.08-.22h.15Zm.08,1.5-.23.08v-.08l.08-.23Zm-.6-2.25.22-.15h.15l-.15.23Zm.45-.45.07-.08.15.15-.08.15Zm-.08-14.4.3.07.07.23-.07.15-.3-.07Zm.08,1.2.07.15h-.15Zm.07,10.12.15.15-.23.07-.08-.15Zm-.3,1.05h.23l-.08.22-.15.08-.07-.23Zm-.22-3.82-.08.15h-.15V156H131Zm-.08,3.15v.07l-.23-.07.08-.15Zm-.23-5,.08-.15.07.08Zm-.22-5.85h.22l.08.22-.3-.07Zm0,.67.3.15v.15h-.3l-.15-.15Zm-.23,11.62.23-.15.67-.08-.15.23-.3.15h-.45Zm.38,3.75v-.23l.15-.3.07.15.53-.23.15.15-.15.22-.53.23Zm.53.67v.15l-.15-.07-.08-.15Zm.22.9v.15l-.15-.08-.22-.75.22.07.08.15.45-.37Zm.38-1.87v-.08H132Zm.38-2.48h.15l-.08.3h-.15L132,162Zm.15.75-.08.15-.07.07-.08-.07Zm-.23,2.55.6-.82.38.07-.23.3v1.05l-.3.23-.23-.07.23-.38v-.15Zm.6,2.1.07-.23-.3-.53h.23l.3.38v.3l-.15.08Zm.23,5.1.07-.15.23-.08.07.15Zm.6-3.9h.15l.08.07v.38l-.08.08-.3-.3Zm-.07,2.85.22-.38.3-.15-.07.23-.3.3Zm1,2.7-.67-.07.3-.08.15-.15h.15l.07.15Zm.9-1.58-1.12-.15,1-.22.23.22Zm-.07-10.2-.08-.15h.23l.07.15Zm.3,2,.15-.3v-.08l.45.53-.6.15Zm.6,1.13H136v-.15h.15Zm-.37-.45-.15.08.23-.23Zm.37,5-.22-.15.15-.38.15.38Zm-.07-2-.15-.08v-.23h.37Zm.45-4.95-.23.22-.15.08.15-.23-.07-.38.3.08Zm-.23-5.55-.15.07.15-.22.3-.15Zm.53,13,.08-.15.07.08Zm.15-3.15-.22-.15.38.08Zm.23-2.1-.38-.23-.15-.3.3.07.23.3Zm.15,7.65h-.07l.22-.15Zm.38-1.72-.3-.15.07-.3.3.3Zm.67-.67-.15.08-.07.07.07-.22h-.53l.45-.08.15-.23.15.08Zm0-2.1-.3.07-.08.08-.3-.08-.15-.38.08-.15.6.08.23.15Zm.23-16.35-.08.15-.15-.15.23-.23h.15Zm.23,5.32v-.38l.15.38Zm.3-12.37-.15-.08.22-.22.23.07.08.15Zm.45,1.43h-.15l.08-.6.22.23Zm.15-14.85.08-.15.07.08Zm.45,10.8-.15.08-.08-.23.15-.22h.15Z"/><polygon class="cls-2" points="138.32 148.16 138.17 148.16 138.17 148.24 138.32 148.16"/><path class="cls-2" d="M27.82,142.39v-.67l-.07-.07v-1.2l.07-.15V139l-.07-.3-1.05-.08-.3-.3.6.15.6-.07.15-.15v-3.37l-.23-1.35.08-1.43-.3-.75-.08-1.28-.53-1.65-.82-1.58-.15-.45-.38-.3-.67-1-.23.07-.38.6v-.38l.15-.3.15-.08.07-.3-.07-.15-.53-.38-.38-.45-.3-.15h-.6l-.07-.38-.23-.37-.45-.38-1.72-.6-.45-.38h-.3l-.23.23-.38-.45-2.1-.53H15.3l-.68-.15-1,.15-.15-.08-1.43.08-.67-.23-.38.23-.07.15h-.3l-.23-.3H9.22l-.15.07H5.4l-.53-.15-1.5.15-.23-.15-.53.15H1.87l-1.35.23-.45.67.08.53-.08.38.15.67-.15.3.15,1.05v.75l-.07.15V126l.07.15v2.55l-.07.15v2.48l-.15.15v.9l.07.15v1.05l-.07.15.15.6v1.35l-.08.15.08,1.72-.08.15.15.3-.15,1.05v2.1l.23.68-.23.22-.07.3.15.6v3.6l.07.15v.67l-.07.15v3.6l-.08,1.28.08.15v1.35l.23.3L.07,156l.15.6-.15,1,.15,1.35v.9l-.07.15V161l.15.45.15.08.53-.15.15.07-.38.45L.53,162l-.15-.15v-.15l-.15-.08-.15,1.2.08.15v1.27l-.08.15.15,2.33-.07.15v1.5l-.08.15.15,1.8L0,171.33l.07.37.3.45-.23.07.07.38.3.6-.38.6.38.9.6.23H6.9l.08-.08L8,175H9.6l.15-.07h.75l.15-.08h.6l.15.08h2l.9.15,1.35-.23.15.08,1-.08.6-.23,1.2-.07,2.17-.82,2.1-1.2L24.52,171l1.35-1.8.15-.75.67-1.2.45-1.43.45-2.48v-.6l.07-.15v-.9l.08-.15v-2.25l.15-.15-.15-1.8.07-.15.08-.6-.15-1.05v-1.13l.07-.15-.07-1.2.07-.45-.15-.23.15-.75v-2l-.15-1.05.08-.15v-.67l.07-.15v-1.35l-.22-.67.22-.6-.07-.07h-.45l-.08-.08.38-.23.22-.82-.15-.23.23-1ZM8.25,126.64l.22.23-.3.3-.07-.22Zm.37,28.87v.15l-.22-.23Zm-.45,10.57-.07.08L7.87,166v-.15l.23-.08Zm-.23-12.3-.22.08v-.15Zm-.22-4.12v-.15h.15l.07.23-.07.15Zm.15,13-.15.07v-.22Zm-.08,5.1h.15l-.22.23-.08-.15ZM7.72,146l-.08-.07.15-.08.15.08Zm-.53-.67-.08-.07.08-.15.45.15.08.15Zm.07,17.47-.07.08-.08-.15ZM7,144.71l.07-.15.75.22Zm.67-14,.07-.15.08.22-.15.08Zm-.23-1.58.08-.15.07.07Zm0-.67.08.38-.23.15-.23-.08.23-.38Zm-.3-1.28v.08l.07.07V128H6.9Zm-.38,2.48.07.15-.3.23-.07-.15-.15.3L5.92,130l-.15-.38,1-.08ZM5.25,166.31l.23-.23H5.7l.3.15.07.15H5.7Zm.38.53V167l-.23-.23.08-.07Zm.6-6.6v.15l-.3.08-.07-.15v-.15ZM5.85,160l.07-.38h.15l-.07.3Zm-.38-20.7.07-.15.08.08Zm.23,24.15h.15l.15.75H5.85l-.23-.3v-.3Zm.3-1.35L5.92,162l.45-.15-.3.38Zm.3-30-.08.15-.3-.23.3-.23.15.08Zm0-.75-.23.22H5.92l-.07-.67-.15-.22.22.22.23-.15.3.08Zm.23,2.4.07.07-.15.08Zm0,22.19v-.15l.22.08-.07.15Zm.15,2.63-.15.08.07-.15ZM5.77,129l.23-.15.07.07-.07.23ZM6,126.19h.15l.07.15-.22.08ZM5.92,128l.53-.15.08.08V128l-.6.08Zm-.3-2.85.15.15-.15.08Zm0,1.87-.08.08-.07-.15Zm-.23.6h.23l-.23.22-.15-.07Zm-.07,4.8h.15l-.08.22H5.25Zm-.08,2.1.23.23-.23-.07ZM5,127.84h.15l-.08.3H4.95Zm-.45,12.6v.07l-.23-.07v-.15Zm-.15-6.82v-.3h.15v.3Zm.3,11.32V145l-.15.08Zm-.07-10,.15-.15v.07Zm0,22.57.3-.08.15.08-.23.3H4.72l-.07-.15Zm.22-16v-.15l.08.15Zm.08-7.35-.3-.08.15-.15h.15l.15.15Zm-.08-2.55v-.15l.23.15.08.3Zm.15-.45-.3.08-.15-.08.23-.23Zm-.53-5.77.08-.15.23.07.07.15-.3.67.08.3.22.22-.38-.15-.07-.3Zm-.07,3.75.15-.08v.15l-.15.08-.08-.08Zm.15.9.15.45-.15.23H3.22l.23-.3.6-.07.3-.3Zm-1.2,13L3.22,143l-.15-.38.45-.07.23.15.15.37.3-.07-.07.15ZM4,144.19l-.07.15-.15.08.15-.3Zm-.6,3.9-.08.08-.15-.45.15-.45.23.38Zm.07,3.3-.07.3-.15.08.07-.3Zm-.07-16.12.15.15-.08.3-.3.15v-.15Zm-.15-.67v-.23l.22.15-.07.08ZM4,141.71l.08-.15.15.23Zm.15-2-.15.08.08-.23h.15Zm-.3-7v-.3l.23.15.15.3Zm-.23-5.92.08.07-.15.15-.15-.08Zm-.6,1.05h.3l-.15.38L3.07,128Zm.07,1.87.3-.3v-.15l.6.15-.07.3-.75.3L3,129.87l-.07-.38Zm0,15.82-.15.23-.3.15.15-.22Zm-.45-9.37.08.3-.15.08-.22-.23.07-.15Zm-.38-1.95V134l.23.08v.15Zm-.07-3.53.22.15.08.15-.38-.3Zm-.38,18.45L1.72,149v-.15l.15-.08.15.08V149ZM2,158.14l-.15.15.07-.15Zm-.08-25.87-.07.15-.23-.53.08-.08.22.23Zm.15,4.35-.07.08-.15.07v-.3Zm-.37-2.17.15.07v.3l-.15.07-.15.15v-.3Zm-.08,21.14H1.5l.08-.07Zm0,4.05.08.07-.3.08Zm.15.45.15-.07.15.07-.07.15-.3.15Zm.15-1.35.15-.07v.22Zm0-19.72v-.3l.23.15v.23Zm0-8.17v-.15H2.1Zm0-3,.08.08-.15.07ZM1.58,131l.15.07v.23l-.15.08-.15-.08Zm-.38,2,.22-.23h.15l.07.15-.15.22-.3.08ZM1,159.41l.08-.23.07.23ZM1.2,162l.07.07-.15.08Zm-.3,3.45h.22v.22l-.22-.07Zm-.53-2.85v-.15l.3-.07-.08.37Zm.9,10.42-.07.15-.6-.67v-.23l.15-.15.3.45.3-.15Zm.53-2.25H1.5v-.23l.3.08Zm-.07-6.07-.15.08-.08-.38-.15-.15.23-.08.3.08Zm.53.3H2.1L2,164.81l.15-.15.08.08Zm.15-4H2.25l.07-.23h.15Zm.15-10.87.23.23-.08.15H2.55Zm.23,14H2.62l.23-.3.08.08Zm.07-4.58.08-.15.07.08Zm0-5.62.3-.82.08-.08.23.15L3,154Zm.9,9.37-.45.3-.23-.08v-.38l.53-.07.15.07Zm-.23-6.75v-.15l.3.22.08.3Zm.6,11.55V168l.22-.07.23.22-.3.08Zm.15-2.1.15-.08-.15.23-.08-.08Zm-.08-1.2.3.07-.07.15L4.27,165Zm.45,4.12L4.5,169l-.07-.07.07-.53h.15l.07.45Zm.07-7-.07.08H4.12L4,162,4,161.81l.75-.23.23.15.15.45-.23.15V162Zm.23,1.72.15-.07.15.07-.15.23-.15-.08ZM5.32,169H5.1v-.15l.23-.08.15.15Zm.22-1.27v-.15l.38-.07v.15l-.22.15ZM6,171.41l-.15-.3.07-.08.23.3Zm.3-2.92.23.08-.08.22-.23.08Zm.53.82-.23.08-.15-.15v-.15l.38.07.15.15Zm0-2,.07-.15.08.08ZM7,165.56l-.15-.07.07-.15.15.07Zm.45,4-.15.15-.15-.15.08-.3.22.15ZM6.3,163.68l1.2-.3.23.15v.15l-.3.15Zm1.65,5.62-.15.3-.15-.08v-.38l.45-.6.15-.08L8.4,168l.22.07v.15l-.3.37-.15.45Zm.23,1.58v-.15l.23.08-.08.07Zm.23,2.4v-.15h.15l.07.15Zm.22-3.3-.07-.07.07-.15.08.07Zm.15-22.42-.23-.07.15-.23.08.08Zm-.23-6.75v-.23l.15.07Zm.23-14.25-.3-.08-.15-.23.15-.22.3.3ZM26.62,139l.15.08-.3.15-.07-.23Zm.23-6.37h-.15l-.08-.3.08-.07h.15Zm.15-2v.23l-.3-.3-.38-.3ZM25.72,129h.37v.15l-.22.15-.15-.15Zm.07,1,.23.15.07.53-.15.23-.37-.3-.08-.3.15-.22Zm.3,17.77h-.37l-.6-.37.08-.08.07-.15.75.15.15.15Zm.23.9.15.08-.07.07-.23-.15Zm-1.65,5-.3-.08-.08-.15.23-.07.3.07Zm.07.6-.3.38h-.15l.38-.45Zm-1.87,3.07.38-.6.15.07Zm.23,1.2v.23l-.23-.07.15-.23Zm.15-2.92h-.15l-.08-.22.23-.08.15.08Zm.08-8.17-.23.15h-.3l.15-.45.3-.08.15.08Zm-2.1-.82.07-.23.15.08v.15Zm.15,3.07h-.15l.07-.08Zm-.45-4.2.6-.07.3.45-.22.23h-.15Zm-2.7-19.72.08.15-.15.22v.15l-.23-.22ZM18,124.7l.07-.15.08.15Zm.07,3.6.08.15-.08.07-.15-.07Zm.23,4.42h.15l-.07.3-.23-.07-.08-.15Zm0-3.07.08-.08.07.15Zm0,3.9.08-.15.07.07Zm.15,5.62v.15l-.3.08.15-.23Zm-.3,1.72-.08.08-.07-.23Zm-.08,3.6.15-.07h.15v.15l-.3.07Zm.08-.82.07-.15.23.07.08.15-.08.15Zm.15-15.45v-.15h.15l.08.15Zm.3,3.82h.15l-.07.15-.15.08Zm0-3.38.08-.22.45-.15.23.15-.45.22Zm0-3.45.08-.15.07.07Zm.82,0,.45.22H20v-.37l.3.07.23.23.07.3-1.27.23v-.23L19,125v-.23l.3-.07-.08.15Zm0,3.45.08-.07.08.38h-.15l.08-.23Zm-.22-1.95.22.23-.22.07-.08-.07-.07-.15Zm.22,2.47v.3l-.3-.15.08-.3ZM19,130.54l.3.15.08.22L20,131l-.23.07-.07-.07-.38-.08.07.08-.15.07-.3-.15-.15-.3Zm2.4.67.15-.08-.3.53-.67.3-.15-.53-.23-.22Zm-1.05-.3.08-.22.15-.08h.15Zm.45-.3v-.3l.22.07.15.45H21Zm2.92,1.5.08.38-.08.15-.6.38.38.38.07.45.15.15.08.38.23.3.45.22.08.15-.75-.3-.53-.38H23l-.22-.22.38-.08.07-.38-1.35.45.08-.3.67-.22.15-.23-.3-.08-.15.08-.15-.08.08-.22.3-.15L23,133v-.3l.38-.53.23-.15Zm-.07-.53.23-.07.15.23-.08.15-.23.07ZM25,138.34l.07.23-.3.07-.45-.07-.15.07-.3-.22-.45.53.15.15h.15l.08.15-.3.07-.82-.37-.07-.6-.38-.23.15-.37.23-.08.82.23-.08-.38h.15l.15.3.3.08.07-.15h.15l.08.52.45-.22Zm-.08-1v-.3l.15-.15h.23l.07.6Zm.08,3.75-.08.15-.23-.08v-.3L25,141Zm-.75-.67h-.15l-.23-.6v-.37l.3.3.23.45Zm.15,2.1-.15.07h-.15l.07-.3h.15Zm-.82-2.7-.38.08-.07-.08-.08-.15.23-.15Zm-.75-.53-.15.08v-.15Zm.08,3.15.3.08.08.15-.3.07v-.15Zm0-1.28-.15.08h-.15l-.15-.45L23,141Zm-.3,1.05-.23.23-.3.08V142l.22.07Zm-.08,6-.3-.15.15-.07.15.07Zm.15,1.58.08.15-.15.08-.15-.08v-.15Zm-.53-3.67h-.07l.07-.23.08.07Zm.08-4.58v.08l-.15-.08.07-.22.15.07Zm-.15-.53-.08.15-.23.23-.07.23.07.9-.6-.6-.3-.07.07-.3.38-.15V141l.08-.08.67.08Zm-1.2,3.45-.23.08-.15-.75-.15-.3.07-.08-.15-.9.08-.53.15-.08.45.23-.07.15-.3.07.08.45.23.22h.15l-.15.23v.6l-.15.07ZM19.27,136l.15-.08h.15l-.08.38h-.38Zm-.15-2,.08-.22.15.15Zm.08-1.87-.08-.22.23.07.07-.15.3.23.07.15Zm.6,5.85.3-.07.15-.9.3.08.07.52-.37.83-.15.15-.3-.45Zm.45-2.47.07-.15.45-.08V135l.52.38.23.38-.3.07Zm.22.53-.15.22-.15-.07.15-.15Zm1-2.55-.15.45-.52.23-.23-.08.15-.23.45-.15V133l.08-.15v-.45l.38-.08Zm-1.13-.82-.07-.22h.22l.08.15Zm-.38-.52-.15-.15.15-.38.45.23Zm1,7.72-.15.15-.38-.75.3-.08.23-.45.22.23.08.37-.38.23Zm-.82.23.3.23v.15l-.15.07-.23-.22Zm.9,2.77.3-.3-.15.3Zm.67-2.18-.3.08-.3-.08-.15-.07.37-.23.45.08Zm-.3-2.92-.45.52h-.3l.08-.22.23-.23v-.53l.15-.3-.53-.3v-.15l.6.37.23-.15.3.08.23.53-.3.07-.3-.3h-.15v.23l.45.3h.22l.38-.23.3.08-.45.38-.15.07ZM22,135l.3-.15V135l-.15.08Zm.6-.07-.07-.38.07-.15.53.53.3.07-.3.67Zm.23,2,.07.23h-.15v-.15Zm1.35.52-.23-.15-.07-.15.3-.08.53.3Zm-.08-.75-.45.3-.3.07v-.23l-.53-.37v-.15l.15-.15.38.15.07-.07-.38-.23.08-.3.82.38.23.52.07.15Zm-2.17-5v-.15l.38-.45.82.67V132l-.67.08Zm1.43-.53.15-.15V131l.07.07Zm-.38-.53h-.15l-.15-.23.15-.53.6.3Zm-.6-1.05-.07.23.07.52-.22.45-.15-.08-.38.23-.15-.08v-.22l.37-.15v-.38l.38-.67v-.15l.15-.15h.23l.3.38Zm-2.25.15.07.23-.07.22-.3.15-.15-.07.3-.67Zm-.15-.75.08-.22h.15l.08.3-.15.07Zm-.45,9.75.3.15-.07.15h-.45l-.15-.08-.23-.3Zm-.23,22,.08.07.07.15h-.22Zm.23,4.35.15.08-.07.15-.15-.07ZM19.42,142l.23-.08v.15Zm.08-.45.23-.53.38-.07-.08.15v.53l-.3-.08-.08.08Zm.6,7.87h.15l.07.15H20.1Zm.15-.53H20.1v-.3h.3Zm.07-3.45v-.22l.23-.15.15.07.23.38-.08.15h-.15l-.08-.23Zm.38,1.05.3.15-.07.07-.23.08-.23-.3Zm.23,2.25.15.08V149l-.15.15h-.15l-.08-.23Zm-.08,2.33.15-.15h.15v.15l-.22.3v.15l-.15-.07Zm.9-4.05-.08.08v-.23Zm0,4.2.45.45-.15.08-.23-.15h-.15Zm0,.9.3.07-.15.15h-.15Zm.23,3.22h.22l-.07.15H22Zm.45,4.65.15-.08.15.08-.15.15Zm.08,4.27.15.22v.23l-.38-.23-.08-.3Zm-.23-11.7-.15-.15.3-.15.23.15.22.38-.07.67-.23-.15Zm.45-1.05.08-.23.15.15Zm.3-5.25-.22-.23v-.15l-.3.07h-.15l.23-.15.23.08.6.23Zm.08-1.2-.23-.23-.6-.3.67-.15-.15-.23-.08-.38.08-.3-.38-.15-.08-.15.15-.15h.15l.53.75h.15l-.23-.6.3.07.23,1.28-.23.45Zm.08-3.3v-.15l.52.38.23-.15v-.3l-.75-.53v-.15l.22-.15-.38-.3-.67-.3-.45-.38-.15-.38.38-.08.07-.15.15.15-.07.45.07.15.75.15.9.52.22.38.08.9-.08.15-.3.07-.07.45h-.15Zm.6,3.3L24,145l-.08.23h-.15Zm.08-.75.3-1.05.38.3-.08.38-.45.38Zm.75,6.45v.15h-.22l.07-.3Zm.15-9.07.08-.15.6.38h-.22l-.23.23h-.15Zm.45.83v.15l-.3.07-.08-.15Zm.3-10.27-.15-.15.07-.07.08.07Zm.38,8.7-.3.15.07-.53.23.15Zm.07,5.1-.15.08v-.23ZM25.34,129l.07.07.08.15-.23.08Zm0,4.65.15-.08-.15.3-.08-.07Zm.07,1-.07.23-.15.67-.23.45-.45.38h-.38l.07-.3-.22-.3.22-.52.53.38.3-.38-.23-1-.23-.08-.38.23-.15-.15.45-.38H25l.23.15Zm-.52-7.27.07.08.08.3L25,128l-.15-.07-.08-.52Zm-.6,4.35.38.3.07.6-.6.53-.08-.08.38-.67v-.23l-.15-.3Zm-1.8-3.15.6.08.67-.3-.15.3h-.3v.15l.3.23.07.3.38.23.15.38-.3.07-.38-.07-.22-.15.22-.3-.22-.3-1.13-.23-.38-.23.08-.15-.08-.3-.15-.15.23-.38.15-.07.23.67Zm-.83-1.65-.07-.08-.08-.15.67-.07Zm.08-3.37h.15v.15h-.15Zm-.3,1.12.22.08h.15l-.15.22-.22-.15Zm-.15,2.17h.15l-.23.15Zm-.45,1.2.15-.15h.15l.08.38.3.38-.67.3-.53-.45-.3-.08-.45-.45.3-.08.45.38.08-.23.38.15Zm-1-5.55.07-.15.38.3-.45-.08Zm-.15,1.72.45.07h.45l-.15.23-.75.23-.3-.15.08-.23ZM19,122l.08-.15.3.38-.38-.07Zm.3,1.43h.15l-.07.3-.38-.15ZM19,126.19v.15l-.38-.08v-.15Zm-.3-1.87-.6-.08v.08H18l-.15-.08.37-.15-.07.15.6-.07Zm-.07-.38v.15h-.15l-.3-.38.08-.15.23.08Zm-.82-1.58.15-.07h.22l-.22.3-.15-.08Zm-.15.6.3-.08.38.23-.38.23-.23-.08-.07-.15Zm-.45,5.1.15.08v.15l-.15-.08Zm-.07-.6v-.15l.07.08Zm0-.68.07-.37v-.15l.3.08.08.53-.08.15h-.15Zm.45,2h.15V129l-.23-.08Zm-.9-3.23.15-.22.6-.15.07-.15.3.3Zm.23.45v.15l-.23-.08.08-.15Zm-.38-.6-.08-.3.08-.15.15.15v.3Zm.82-1.58.3.23-.08.15-.23-.15Zm.15.9.15-.07-.08.22h-.15l-.08-.15ZM16.87,123l.08.15v.15l-.23-.3Zm-.45,1.13.23.07.07.3-.3-.08Zm-.75-1.2.08.07-.15.08Zm-.53.82.08-.38.23.08v.22l-.15.15.07.23.53-.45H16l.08.53-.75.53-.15.22h-.15v-.37l.15-.3-.15-.22-.08-.15Zm-1.12.07V124l-.15-.08-.08-.15Zm.3.38-.07.3-.23.15v-.3Zm-.6.45.07.15h-.22l-.08-.15Zm-.45-1.87.23.22h-.23l-.07-.15Zm.15,2.32.08-.15.23.15.37.08.3-.08.22-.38.15.08.15.53.38.07.3-.3H16l.37.38.15.3-.9-.07-.08.37.3.53.23.15.23-.07.45-.38.08.3-.23.3-.9.37-.07-.15v-.6l-.15-.3L15,125.9v-.15l-.45.15-.08-.38-.6.15-.15-.23-.3.3-.37-.23Zm3.15,3.3v-.15l.08-.08.07.23Zm.08.9-.08.15-.15.07.07-.22Zm-3.6-2v.15h-.3v-.15l.15-.07Zm-1.58-1.2h-.15V126l.3-.38.07.23Zm.22.67-.15.08v-.23Zm.23.45h.15l.3-.15-.08.3-.45.23-.45-.08Zm0-.9.23-.08-.15.15Zm.38-.67h-.15l-.15-.08.07-.15.45-.22.22.15Zm.38,2.17h.15l.08.15h-.23Zm.07-4.57-.37.08-.08-.15.3-.3.15.08Zm-.22-1.65.15.3-.3-.08-.15-.3Zm-.38,2.92.15.07-.15.3-.45-.07.08-.15Zm-1.2-1.28.23-.08.22-.22.45-.08-.15.38-.3.23H11l-.07-.08Zm0,3.9.23.08-.23.07Zm-.45-4,.22.15-.07.23-.23-.23Zm-.23-1.87.07.07-.15.08Zm-.53,2.55.23.15-.08.15-.15-.15ZM10.57,168v-.22h.3l-.15.22Zm.75.67-.53-.15.07-.3.38.23.08.15ZM11.4,172v-.23l.15.15Zm.6-1.28-.15.08h-.15l.15-.3.15.08Zm-.23-.6-.15-.15.07-.37.15-.08.07-.08.23.23ZM11.54,167l.08-.15.07.15Zm.75,5.1v-.23l.23.08.07.3h-.15Zm.38.67-.15-.07v-.23l.22.15Zm.23-1.27-.15.07H12.6l-.15-.53.23.08.23.23Zm0-1.2h-.3l-.15-.08.15-.15.53.08Zm-.23-2.63.07-.15h.15l.07.3-.07.08Zm1.12,4.65v-.08l.23.08Zm.67-3.82-.15.15h-.15v-.15l.15-.15h.15Zm-.3-1.87.08-.15.15.23Zm.53,4.57V171l.3.08.08.15-.15.08Zm.67,3-.3-.08V174l.23-.07.22.15Zm1.8-9.75-1.58,1.35-2.25.53h-.6l-.15.07H11.25l-.6-.15-.45-.3-.15-.23v-5.17l-.07-.15v-1.95l.07-.15v-2.1l-.07-.38v-4l.07-.15v-3l.08-.38-.15-.15-.3.08.45-1.13v-1.2l-.08-.15V144l-.07-.15v-2l.15-.6-.15-.68.07-1.42.08-.15v-1.2l-.08-.15v-4.65l.08-.15v-1.35l-.08-.15.08-1.8.82-.38.9.08.9-.15,1.2.38H15l.38.23.45-.15.3.07v.45l.6.38h.15l-.07.15.07.22.53.6-.07.23.3.82.3.15-.15.15v2L18,135l-.23.38-.07.6.15.82.22.15-.15.23v.9l-.15.3.15.45-.07.53v3.22l-.08.15v4.88l-.07.15.07,1.72.15.38-.22,2,.15.38-.08.6.15,1.05-.15.3.15.9-.07,1.2-.08.08v5.32Zm1.12,4.27-.23.23.23-.6.08.23Zm-.3-3,.07-.15.15.15v.15h-.15Zm.22,2,.08-.15h.15l-.07.15Zm.38,5.17-.15-.08h.15Zm-.22-7.35-.83-.23,1.05.23Zm.3-29.77.07-.15.15.08-.15.15Zm.22,29.84h.38l.15.23-.15.08-.3-.15Zm.75,1.43-.3.07-.15-.07.07-.3.45-.23.07.3Zm.08-19.87-.08-.23.15-.15h.15l-.07.45Zm.53,18.9-.3.3.15-.75.22.23Zm.07-8.32.38.08-.23.15-.15-.08Zm.3,1.87-.22-.15.07-.23h.15l.15.3Zm.53-5.7.08.07-.08.15-.22-.07-.15-.08Zm-.22,2.1.37.15.38-.37.08.15-.08.3-.38.23-.37-.23Zm.37,3.6h-.15l-.07-.45.3.23Zm.3.15.3-.3-.15.23-.08.15Zm.3,6.45h-.15l.23-.08Zm.08-2.92-.08-.23.15-.15v-.15l.15.15-.15.23Zm.3,4v.15h-.15Zm-.08,4.5v-.23l.15.08.08.3Zm.53-2.77-.22.15-.15-.15v-.15h.38Zm-.07-7.57h-.15v-.22l.3.15Zm.07-5.4h-.15l-.15-.08.08-.15.3.08Zm.3-2.7.15.07-.08.23-.3-.08Zm0,8.85h-.15V162l.23.07Zm.08-2.85h.23l.07.15-.15.07-.15-.07Zm.38,1.35-.23-.15.08-.53h.22l-.15.53Zm.07-12,.3-.08-.08.3h-.15v-.07Zm.38,13.65-.23-.08-.07-.45.15.08.15.3ZM24,151.46l-.23-.15-.15-.3v-.23l.15-.15h.15l.08.3Zm-.3-4.35-.07-.15v-.15l.15-.08-.08-.07-.3.07-.07-.15.07-.15.23.07.6-.22.23.15-.3.67Zm.6,10.8-.08-.15h.23l.08.15Zm.6,1.05h-.15l-.15-.08.3-.22.15.07Zm.15-.82h-.15l.07-.23.15.07Zm.07-6.37h-.22v-.3H25l.07.15Zm.45,15.14-.08-.15.23-.07.07.15Zm.22-18.52-.45.53h-.23l-.15-.07.3-.53.3-.15h.3Zm.53,16.87h-.23l.08-.38.23.15Zm.38-14.47-.15.08-.3.08-.38-.08.22-.23.3-.07.15-.3.23.23Zm.08-2.85-.53-.15v-.23l.15-.15h.15l.23.38Zm.07-2.25-.6-.23-.08.08-.08-.23.08-.07h.45l.23.22Zm.6,4.95-.23.08v-.08Zm-.38-11.47-.15-.07L27,139l.23.15Z"/><polygon class="cls-2" points="22.87 138.26 22.79 138.42 23.09 138.64 23.47 138.64 23.54 138.49 23.17 138.26 22.87 138.26"/><polygon class="cls-2" points="281.71 148.16 281.56 148.16 281.56 148.24 281.71 148.16"/><path class="cls-2" d="M179.64,214a1.2,1.2,0,0,0-.78.41c-4.81,3.58-11.77,5.22-17.4,5.22-4.19,0-7.78-.92-7.78-3.48,0-3.58,9.62-8,18.22-8a1.37,1.37,0,0,0,.32,0c1,0,1.68-1.54,1.68-2.22,0-1.66-1.37-4.36-3.64-4.36-.52,0-2.06.63-2.88.66-5.4-.15-10.83-2.19-10.83-12,0-13.92,8.7-36.64,16.15-36.61,0,4.57-.08,10.21-.08,20.23,0,8.8-.41,14.12-.41,17.4a4.59,4.59,0,0,0,3.38,4.19c1.13,0,3-.61,3-1.74v-.41c-.14-1.08-.22-4.09-.26-8.05.37-6.62,1.28-20.8,1.28-24a16.34,16.34,0,0,0-1.29-6.41c.05-3.89.14-8,.26-8.63a4.91,4.91,0,0,0,.42-1.53c0-2-2.61-5-4.31-5a2.56,2.56,0,0,0-2.15,1.84c0,.65.19,2.51.2,7.59a7.6,7.6,0,0,0-3.48-1.25c-9.42,0-19.14,20.77-19.14,38.07,0,7.57,1.84,14.23,10.15,18-5.75,2.15-11.58,5.73-11.58,10.95,0,3.08,2.48,4.69,5.66,7.58a16,16,0,0,0,11.12,3.88c6.55,0,13.71-2.35,15.87-5.12a9.23,9.23,0,0,0,1-4.3A3.24,3.24,0,0,0,179.64,214Z"/><path class="cls-2" d="M234.47,197.31c0-5.68,3.3-18.19,6.18-19.91-.07,5.73-.65,12.39-.72,14.57-.06,1.91,2.59,4.49,4.31,4.49,1.35,0,2.66-.95,2.62-1.87-.09-2.4-.26-7.44-.26-11.44,0-4.54.41-9.53.58-12.21,0-.66.13-1.2.13-1.59,0-1.57-2.19-4.17-4.31-4.17-1.38,0-2.85,1-2.85,2a52.63,52.63,0,0,1,.52,7.37,7.52,7.52,0,0,0-4.27-2c-4.55,0-8.86,15.12-8.86,23.76a16.19,16.19,0,0,0,.94,5.78c-1.72,6.45-4.22,12.75-5.73,12.75s-3.3-6-3.3-15.24c0-4.49.06-12.62.16-17a59.36,59.36,0,0,1,6.43-1.12c.68-.11.91-.68.91-1.36,0-2-1.93-5.46-3.41-5.46a20.41,20.41,0,0,0-3.71.38c-.08-7.56.05-16.26.3-16.75a3.06,3.06,0,0,0,.34-1.37c0-2.39-3.87-5.68-5.91-5.68-.8,0-1.59,1-1.59,2,0,.7.33,2.65.3,4.48-.06,5.66,0,11.8-.2,18.72-.55.17-3.35,1.05-4.08,1.35s-1.14.57-1.14,1.14c0,1.93,2.46,4.6,4.9,4.86-.34,4.33-1.48,10.71-2.29,14.92,0,.08,0,.16,0,.24-1.38,6.18-3.92,13.62-5.19,13.66-1.74,0-.51-35.49.37-38.11a1.53,1.53,0,0,0,.16-.68c0-1.79-2.35-4-4.14-4-1.36,0-3,1-3,1.93,0,.34,0,2.39-.11,3.75a7.16,7.16,0,0,0-3-2.24c-1.24-.5-2.3-1.4-3.72-1.4-5.46,0-8,14.78-8,28.08,0,9.44,1.25,15.12,4,18,1.94,2,3.3,3.75,5.23,3.75,3.76,0,5.21-6.29,5.6-10.75,0-.16.1-.25.19-.25s.17.08.21.24a11.06,11.06,0,0,0,2.75,5.53c1.51,1.51,2.08,2.44,3.45,2.44h0c3.21,0,6-6.06,7.76-11.81a21.67,21.67,0,0,0,1.49,5.4,10.58,10.58,0,0,0,4,5c1.7,1.2,3.07,3.07,5,3.07,3.67,0,6.74-7.59,8.51-13.89,4.53,3.19,10.85,2.21,10.88,3.88s-6,4.55-8.44,4.5a6.14,6.14,0,0,0-1.36-.34c-.55,0-1,.3-1,1.52a5.37,5.37,0,0,0,5.12,5c4.32,0,11.48-4.32,11.48-10.68C248.68,201.74,234.47,208.33,234.47,197.31Zm-41.38,19c-1.59,0-2.39-5.34-2.39-13.18,0-16,3.3-26.15,5.11-26.15.91,0,1.93,4.78,1.93,12.51C197.75,200.61,195.59,216.29,193.09,216.29Z"/></g></g></g></svg>